<svg xmlns="http://www.w3.org/2000/svg" width="284.123" height="284.007" viewBox="0 0 284.123 284.007">
  <g id="ADD" transform="translate(-12.1 -13.5)">
    <g id="Group_9" data-name="Group 9" transform="translate(12.1 13.5)">
      <g id="Group_5" data-name="Group 5" transform="translate(0)">
        <g id="Group_4" data-name="Group 4">
          <g id="Group_3" data-name="Group 3">
            <path id="Path_8" data-name="Path 8" d="M154.133,297.507C75.846,297.507,12.1,233.819,12.1,155.474S75.846,13.5,154.133,13.5a141.16,141.16,0,0,1,100.8,41.935,6.93,6.93,0,0,1,2.094,5.176,7.28,7.28,0,0,1-12.447,5.176,127.453,127.453,0,1,0,36.991,89.8,7.328,7.328,0,0,1,14.657,0C296.165,233.819,232.477,297.507,154.133,297.507Z" transform="translate(-12.1 -13.5)" fill="#9292b1"/>
          </g>
        </g>
      </g>
      <g id="Group_8" data-name="Group 8" transform="translate(83.989 83.873)">
        <g id="Group_7" data-name="Group 7">
          <g id="Group_6" data-name="Group 6">
            <path id="Path_9" data-name="Path 9" d="M217.444,276.689a7.554,7.554,0,0,1-7.547-7.548V231.284a5.087,5.087,0,0,0-5.092-5.091H166.948a7.548,7.548,0,1,1,0-15.1h37.858a5.087,5.087,0,0,0,5.092-5.092V168.148a7.548,7.548,0,1,1,15.1,0v37.858a5.087,5.087,0,0,0,5.092,5.092h37.858a7.548,7.548,0,1,1,0,15.1H230.084a5.087,5.087,0,0,0-5.092,5.091v37.858A7.516,7.516,0,0,1,217.444,276.689Z" transform="translate(-159.4 -160.6)" fill="#9292b1"/>
          </g>
        </g>
      </g>
    </g>
  </g>
</svg>
