<svg xmlns="http://www.w3.org/2000/svg" xmlns:xlink="http://www.w3.org/1999/xlink" width="119" height="119" viewBox="0 0 119 119">
  <defs>
    <filter id="Ellipse_2" x="0" y="0" width="119" height="119" filterUnits="userSpaceOnUse">
      <feOffset dy="3" input="SourceAlpha"/>
      <feGaussianBlur stdDeviation="12" result="blur"/>
      <feFlood flood-color="#dbeefa" flood-opacity="0.502"/>
      <feComposite operator="in" in2="blur"/>
      <feComposite in="SourceGraphic"/>
    </filter>
  </defs>
  <g id="Group_467" data-name="Group 467" transform="translate(-128 -555)">
    <g transform="matrix(1, 0, 0, 1, 128, 555)" filter="url(#Ellipse_2)">
      <circle id="Ellipse_2-2" data-name="Ellipse 2" cx="23.5" cy="23.5" r="23.5" transform="translate(36 33)" fill="#fff" opacity="0.5"/>
    </g>
    <g id="ADD" transform="translate(162.521 585.5)">
      <g id="Group_9" data-name="Group 9" transform="translate(12.1 13.5)">
        <g id="Group_5" data-name="Group 5" transform="translate(0)">
          <g id="Group_4" data-name="Group 4">
            <g id="Group_3" data-name="Group 3">
              <path id="Path_8" data-name="Path 8" d="M24.6,38.5a12.5,12.5,0,1,1,8.873-21.309.61.61,0,0,1,.184.456.641.641,0,0,1-1.1.456,11.219,11.219,0,1,0,3.256,7.9.645.645,0,0,1,1.29,0A12.519,12.519,0,0,1,24.6,38.5Z" transform="translate(-12.1 -13.5)" fill="#9292b1"/>
            </g>
          </g>
        </g>
        <g id="Group_8" data-name="Group 8" transform="translate(7.393 7.383)">
          <g id="Group_7" data-name="Group 7">
            <g id="Group_6" data-name="Group 6">
              <path id="Path_9" data-name="Path 9" d="M164.509,170.819a.665.665,0,0,1-.664-.664v-3.332a.448.448,0,0,0-.448-.448h-3.332a.664.664,0,1,1,0-1.329H163.4a.448.448,0,0,0,.448-.448v-3.332a.664.664,0,1,1,1.329,0V164.6a.448.448,0,0,0,.448.448h3.332a.664.664,0,1,1,0,1.329h-3.332a.448.448,0,0,0-.448.448v3.332A.662.662,0,0,1,164.509,170.819Z" transform="translate(-159.4 -160.6)" fill="#9292b1"/>
            </g>
          </g>
        </g>
      </g>
    </g>
  </g>
</svg>
