<svg id="photo-camera" xmlns="http://www.w3.org/2000/svg" width="17.268" height="15" viewBox="0 0 17.268 15">
  <g id="Group_36" data-name="Group 36" transform="translate(0 0)">
    <path id="Path_61" data-name="Path 61" d="M14.953,36.724l-1.812-.009L11.4,34.125a.574.574,0,0,0-.474-.266H6.252a.572.572,0,0,0-.465.256l-1.793,2.6-1.679.009A2.324,2.324,0,0,0,0,39.039v7.486a2.341,2.341,0,0,0,2.315,2.334H14.953a2.341,2.341,0,0,0,2.315-2.334V39.039A2.324,2.324,0,0,0,14.953,36.724Zm1.176,9.8a1.2,1.2,0,0,1-1.176,1.2H2.315a1.2,1.2,0,0,1-1.176-1.2V39.039a1.182,1.182,0,0,1,1.176-1.176H4.3a.572.572,0,0,0,.465-.256l1.793-2.6h4.07l1.727,2.581a.586.586,0,0,0,.465.256l2.125.019a1.182,1.182,0,0,1,1.176,1.176v7.486h.009Z" transform="translate(0 -33.859)" fill="#9292b1"/>
    <path id="Path_62" data-name="Path 62" d="M143.1,160.225a4.267,4.267,0,1,0,4.267,4.267A4.27,4.27,0,0,0,143.1,160.225Zm0,7.329a3.062,3.062,0,1,1,3.062-3.062A3.068,3.068,0,0,1,143.1,167.554Z" transform="translate(-134.421 -156.28)" fill="#9292b1"/>
    <ellipse id="Ellipse_2" data-name="Ellipse 2" cx="0.231" cy="0.231" rx="0.231" ry="0.231" transform="translate(13.612 5.673)" fill="#9292b1"/>
    <path id="Path_63" data-name="Path 63" d="M397.783,186.575a.833.833,0,1,0,.833.833A.831.831,0,0,0,397.783,186.575Zm0,1.2a.371.371,0,0,1-.371-.371.371.371,0,0,1,.743,0A.371.371,0,0,1,397.783,187.78Z" transform="translate(-383.889 -181.496)" fill="#9292b1"/>
  </g>
</svg>
