<svg id="menu_1_" data-name="menu (1)" xmlns="http://www.w3.org/2000/svg" width="25.39" height="25.029" viewBox="0 0 25.39 25.029">
  <path id="Path_1576" data-name="Path 1576" d="M1.021,6.949H5.928A1.022,1.022,0,0,0,6.949,5.928V1.021A1.022,1.022,0,0,0,5.928,0H1.021A1.022,1.022,0,0,0,0,1.021V5.928A1.022,1.022,0,0,0,1.021,6.949ZM.744,1.021A.277.277,0,0,1,1.021.744H5.928a.277.277,0,0,1,.277.277V5.928a.277.277,0,0,1-.277.277H1.021a.277.277,0,0,1-.277-.277Zm0,0" fill="#9292af"/>
  <path id="Path_1577" data-name="Path 1577" d="M377.8,0h-4.908a1.022,1.022,0,0,0-1.02,1.021V5.928a1.022,1.022,0,0,0,1.02,1.021H377.8a1.022,1.022,0,0,0,1.021-1.021V1.021A1.022,1.022,0,0,0,377.8,0Zm.277,5.928a.277.277,0,0,1-.277.277h-4.908a.277.277,0,0,1-.277-.277V1.021a.277.277,0,0,1,.277-.277H377.8a.277.277,0,0,1,.277.277Zm0,0" transform="translate(-353.43)" fill="#9292af"/>
  <path id="Path_1578" data-name="Path 1578" d="M1.021,189.246H5.928a1.022,1.022,0,0,0,1.021-1.021v-4.908A1.022,1.022,0,0,0,5.928,182.3H1.021A1.022,1.022,0,0,0,0,183.318v4.908A1.022,1.022,0,0,0,1.021,189.246Zm-.277-5.928a.277.277,0,0,1,.277-.277H5.928a.277.277,0,0,1,.277.277v4.908a.277.277,0,0,1-.277.277H1.021a.277.277,0,0,1-.277-.277Zm0,0" transform="translate(0 -173.257)" fill="#9292af"/>
  <path id="Path_1579" data-name="Path 1579" d="M377.8,182.3h-4.908a1.022,1.022,0,0,0-1.02,1.021v4.908a1.022,1.022,0,0,0,1.02,1.021H377.8a1.022,1.022,0,0,0,1.021-1.021v-4.908A1.022,1.022,0,0,0,377.8,182.3Zm.277,5.928a.277.277,0,0,1-.277.277h-4.908a.277.277,0,0,1-.277-.277v-4.908a.277.277,0,0,1,.277-.277H377.8a.277.277,0,0,1,.277.277Zm0,0" transform="translate(-353.43 -173.257)" fill="#9292af"/>
  <path id="Path_1580" data-name="Path 1580" d="M6.949,370.522v-4.908a1.022,1.022,0,0,0-1.021-1.021H1.021A1.022,1.022,0,0,0,0,365.614v4.908a1.022,1.022,0,0,0,1.021,1.021H5.928A1.022,1.022,0,0,0,6.949,370.522Zm-6.205,0v-4.908a.277.277,0,0,1,.277-.277H5.928a.277.277,0,0,1,.277.277v4.908a.277.277,0,0,1-.277.277H1.021A.277.277,0,0,1,.744,370.522Zm0,0" transform="translate(0 -346.514)" fill="#9292af"/>
  <path id="Path_1581" data-name="Path 1581" d="M185.934,370.522a1.022,1.022,0,0,0,1.021,1.021h4.908a1.022,1.022,0,0,0,1.021-1.021v-4.908a1.022,1.022,0,0,0-1.021-1.021h-4.908a1.022,1.022,0,0,0-1.021,1.021Zm.744-4.908a.277.277,0,0,1,.277-.277h4.908a.277.277,0,0,1,.277.277v4.908a.277.277,0,0,1-.277.277h-4.908a.277.277,0,0,1-.277-.277Zm0,0" transform="translate(-176.713 -346.514)" fill="#9292af"/>
  <path id="Path_1582" data-name="Path 1582" d="M377.8,364.594h-4.908a1.022,1.022,0,0,0-1.02,1.021v4.908a1.022,1.022,0,0,0,1.02,1.021H377.8a1.022,1.022,0,0,0,1.021-1.021v-4.908A1.022,1.022,0,0,0,377.8,364.594Zm.277,5.929a.277.277,0,0,1-.277.277h-4.908a.277.277,0,0,1-.277-.277v-4.908a.277.277,0,0,1,.277-.277H377.8a.277.277,0,0,1,.277.277Zm0,0" transform="translate(-353.43 -346.514)" fill="#9292af"/>
  <path id="Path_1583" data-name="Path 1583" d="M185.934,188.225a1.022,1.022,0,0,0,1.021,1.02h4.908a1.022,1.022,0,0,0,1.021-1.02v-1.586a.372.372,0,0,0-.744,0v1.586a.277.277,0,0,1-.277.277h-4.908a.277.277,0,0,1-.277-.277v-4.908a.277.277,0,0,1,.277-.277h4.908a.277.277,0,0,1,.277.277V184.9a.372.372,0,1,0,.744,0v-1.586a1.022,1.022,0,0,0-1.021-1.021h-4.908a1.022,1.022,0,0,0-1.021,1.021Zm0,0" transform="translate(-176.713 -173.257)" fill="#9292af"/>
  <path id="Path_1584" data-name="Path 1584" d="M191.862,6.949a1.022,1.022,0,0,0,1.021-1.021V1.021A1.022,1.022,0,0,0,191.862,0h-1.586a.372.372,0,1,0,0,.744h1.586a.277.277,0,0,1,.277.277V5.928a.277.277,0,0,1-.277.277h-4.908a.277.277,0,0,1-.277-.277V1.021a.277.277,0,0,1,.277-.277h1.586a.372.372,0,0,0,0-.744h-1.586a1.022,1.022,0,0,0-1.021,1.021V5.928a1.022,1.022,0,0,0,1.021,1.021Zm0,0" transform="translate(-176.713)" fill="#9292af"/>
</svg>
