<svg xmlns="http://www.w3.org/2000/svg" width="13.895" height="13.891" viewBox="0 0 13.895 13.891">
  <g id="CHAT" transform="translate(-11.261 -11.5)">
    <path id="Path_12" data-name="Path 12" d="M18.21,25.391a6.949,6.949,0,0,1-3.456-.92.258.258,0,0,0-.119-.031.212.212,0,0,0-.074.011l-2.877.926a.291.291,0,0,1-.1.014.323.323,0,0,1-.227-.094.319.319,0,0,1-.08-.324L12.2,22.1a.241.241,0,0,0-.02-.193,6.955,6.955,0,1,1,6.027,3.488ZM14.7,23.747a.329.329,0,0,1,.17.048,6.3,6.3,0,1,0-2.014-2.014.317.317,0,0,1,.034.267l-.667,2.076a.237.237,0,0,0,.06.244.243.243,0,0,0,.17.071.212.212,0,0,0,.074-.011l2.076-.667A.361.361,0,0,1,14.7,23.747Zm6.317-4.84a.46.46,0,1,1,.46-.46A.462.462,0,0,1,21.019,18.907Zm-2.809,0a.46.46,0,1,1,.46-.46A.462.462,0,0,1,18.21,18.907Zm-2.806,0a.46.46,0,1,1,.46-.46A.462.462,0,0,1,15.4,18.907Z" transform="translate(0)" fill="#9292b1"/>
  </g>
</svg>
