<svg xmlns="http://www.w3.org/2000/svg" xmlns:xlink="http://www.w3.org/1999/xlink" width="80.883" height="26.766" viewBox="0 0 80.883 26.766">
  <defs>
    <clipPath id="clip-path">
      <path id="Path_1828" data-name="Path 1828" d="M470.672,583.176c2.258,0,4.516-.014,6.773.006a2.276,2.276,0,0,1,.6,4.468,3.451,3.451,0,0,1-.893.084c-4.043,0-8.085,0-12.128,0a8,8,0,1,0,5.875,13.1,2.381,2.381,0,0,1,2.526-1.015,2.26,2.26,0,0,1,1.2,3.68A12.111,12.111,0,0,1,464.2,608.3a12.566,12.566,0,0,1,.21-25.117C466.5,583.157,468.586,583.176,470.672,583.176Z" transform="translate(-452.18 -583.169)" fill="none"/>
    </clipPath>
    <clipPath id="clip-path-2">
      <path id="Path_1838" data-name="Path 1838" d="M518.457,634.717a2.932,2.932,0,1,1,2.936-2.916A2.97,2.97,0,0,1,518.457,634.717Z" transform="translate(-515.5 -628.852)" fill="none"/>
    </clipPath>
    <clipPath id="clip-path-3">
      <path id="Path_1848" data-name="Path 1848" d="M568.417,631.729a2.932,2.932,0,1,1-2.977-2.928A2.952,2.952,0,0,1,568.417,631.729Z" transform="translate(-562.553 -628.801)" fill="none"/>
    </clipPath>
    <clipPath id="clip-path-4">
      <path id="Path_1863" data-name="Path 1863" d="M802.795,635.793q-.4.072-1.173.2a9.776,9.776,0,0,1-1.569.126,8.5,8.5,0,0,1-1.425-.108,2.431,2.431,0,0,1-1.065-.433,2.08,2.08,0,0,1-.667-.884,3.821,3.821,0,0,1-.234-1.461V618.549q.4-.072,1.172-.2a9.743,9.743,0,0,1,1.569-.127,8.49,8.49,0,0,1,1.425.108,2.431,2.431,0,0,1,1.064.433,2.086,2.086,0,0,1,.667.884,3.832,3.832,0,0,1,.235,1.461Z" transform="translate(-796.662 -618.224)" fill="none"/>
    </clipPath>
    <clipPath id="clip-path-5">
      <path id="Path_1886" data-name="Path 1886" d="M799.063,619.641A4.409,4.409,0,0,1,800.2,617.4a2.832,2.832,0,0,1,2.11-.866,2.681,2.681,0,0,1,1.84.577,11.522,11.522,0,0,1,1.443,1.624l2.309,3.03,3.86-5.231a6.012,6.012,0,0,1,3.138.7,2.138,2.138,0,0,1,1.154,1.894,2.677,2.677,0,0,1-.126.848,3.553,3.553,0,0,1-.379.776q-.253.4-.649.9t-.938,1.19l-2.381,2.67,4.726,6.241a3.352,3.352,0,0,1-1.082,2.164,3.168,3.168,0,0,1-2.164.794,3.2,3.2,0,0,1-2.182-.794,11.626,11.626,0,0,1-1.569-1.84l-1.948-2.778-3.68,5.3c-.121,0-.252.006-.4.018s-.265.018-.361.018a4.425,4.425,0,0,1-2.8-.758,2.307,2.307,0,0,1-.956-1.876,2.844,2.844,0,0,1,.415-1.533,15.429,15.429,0,0,1,1.425-1.822L803.9,625.3Z" transform="translate(-799.063 -616.538)" fill="none"/>
    </clipPath>
    <clipPath id="clip-path-6">
      <path id="Path_1903" data-name="Path 1903" d="M614.232,607.413q-.4.072-1.172.2a9.775,9.775,0,0,1-1.569.126,8.505,8.505,0,0,1-1.425-.108A2.428,2.428,0,0,1,609,607.2a2.075,2.075,0,0,1-.667-.884,3.816,3.816,0,0,1-.235-1.461V583.929q.4-.072,1.172-.2a9.784,9.784,0,0,1,1.569-.126,8.48,8.48,0,0,1,1.425.108,2.43,2.43,0,0,1,1.064.433,2.088,2.088,0,0,1,.667.884,3.835,3.835,0,0,1,.234,1.461Z" transform="translate(-608.099 -583.604)" fill="none"/>
    </clipPath>
    <clipPath id="clip-path-7">
      <path id="Path_1928" data-name="Path 1928" d="M721.263,604.275a4.5,4.5,0,0,1-.992,2.6,3.017,3.017,0,0,1-2.363.9,3.822,3.822,0,0,1-2.056-.559,8.037,8.037,0,0,1-1.948-1.894l-3.571-4.473v6.566q-.4.072-1.172.2a9.771,9.771,0,0,1-1.569.126,8.506,8.506,0,0,1-1.425-.108,2.429,2.429,0,0,1-1.064-.433,2.081,2.081,0,0,1-.667-.884,3.82,3.82,0,0,1-.234-1.461V583.965q.4-.108,1.172-.234a9.783,9.783,0,0,1,1.569-.126,8.484,8.484,0,0,1,1.425.108,2.43,2.43,0,0,1,1.064.433,2.087,2.087,0,0,1,.667.884,3.829,3.829,0,0,1,.235,1.461v9.524l6.2-6.349a5,5,0,0,1,3.012.83,2.5,2.5,0,0,1,1.136,2.092,2.648,2.648,0,0,1-.181.992,3.623,3.623,0,0,1-.559.92,8.24,8.24,0,0,1-.974.992q-.6.523-1.389,1.208l-2.093,1.8Z" transform="translate(-704.2 -583.604)" fill="none"/>
    </clipPath>
    <clipPath id="clip-path-8">
      <path id="Path_1960" data-name="Path 1960" d="M640.231,624.93a10.875,10.875,0,0,1-.685,3.986,8.08,8.08,0,0,1-1.93,2.94,8.2,8.2,0,0,1-2.976,1.8,11.506,11.506,0,0,1-3.86.613,10.914,10.914,0,0,1-3.86-.65,8.5,8.5,0,0,1-2.976-1.858,8.287,8.287,0,0,1-1.93-2.94,11.313,11.313,0,0,1,0-7.756,8.289,8.289,0,0,1,1.93-2.94,8.5,8.5,0,0,1,2.976-1.858,10.919,10.919,0,0,1,3.86-.649,10.66,10.66,0,0,1,3.86.667,8.724,8.724,0,0,1,2.976,1.876,8.3,8.3,0,0,1,1.93,2.94A10.319,10.319,0,0,1,640.231,624.93Zm-12.626,0a5.7,5.7,0,0,0,.848,3.373,2.75,2.75,0,0,0,2.363,1.172,2.647,2.647,0,0,0,2.327-1.19,5.913,5.913,0,0,0,.811-3.355,5.725,5.725,0,0,0-.83-3.337,2.931,2.931,0,0,0-4.69,0A5.72,5.72,0,0,0,627.6,624.93Z" transform="translate(-621.328 -615.623)" fill="none"/>
    </clipPath>
    <clipPath id="clip-path-9">
      <ellipse id="Ellipse_71" data-name="Ellipse 71" cx="38.457" cy="0.23" rx="38.457" ry="0.23" fill="none"/>
    </clipPath>
  </defs>
  <g id="Group_521" data-name="Group 521" transform="translate(-449.178 -580.169)">
    <g id="Group_517" data-name="Group 517" transform="translate(449.178 580.169)">
      <g id="Group_500" data-name="Group 500" transform="translate(0 0)">
        <g id="Group_493" data-name="Group 493">
          <g id="Group_492" data-name="Group 492" transform="translate(0.541 0.541)">
            <g id="Group_491" data-name="Group 491" clip-path="url(#clip-path)">
              <path id="Path_1798" data-name="Path 1798" d="M449.047,714.426l.977,1.662h-.977Z" transform="translate(-449.612 -690.764)" fill="#fcbd79"/>
              <path id="Path_1799" data-name="Path 1799" d="M449.047,701.095l2.389,4.066h-1.412l-.977-1.662Z" transform="translate(-449.612 -679.836)" fill="#fcbc7a"/>
              <path id="Path_1800" data-name="Path 1800" d="M449.047,687.764l3.8,6.469h-1.412l-2.389-4.065Z" transform="translate(-449.612 -668.909)" fill="#fcbb7a"/>
              <path id="Path_1801" data-name="Path 1801" d="M449.047,674.433l5.214,8.872h-1.412l-3.8-6.469Z" transform="translate(-449.612 -657.981)" fill="#fcba7b"/>
              <path id="Path_1802" data-name="Path 1802" d="M449.047,661.1l6.627,11.275h-1.412l-5.214-8.872Z" transform="translate(-449.612 -647.053)" fill="#fcb97c"/>
              <path id="Path_1803" data-name="Path 1803" d="M449.047,647.771l8.039,13.678h-1.412l-6.627-11.275Z" transform="translate(-449.612 -636.125)" fill="#fcb87c"/>
              <path id="Path_1804" data-name="Path 1804" d="M449.047,634.44l9.451,16.081h-1.412l-8.039-13.678Z" transform="translate(-449.612 -625.197)" fill="#fcb77d"/>
              <path id="Path_1805" data-name="Path 1805" d="M449.047,621.109l10.864,18.485H458.5l-9.451-16.081Z" transform="translate(-449.612 -614.269)" fill="#fcb67d"/>
              <path id="Path_1806" data-name="Path 1806" d="M449.047,607.778l12.276,20.888h-1.412l-10.864-18.485Z" transform="translate(-449.612 -603.342)" fill="#fcb57e"/>
              <path id="Path_1807" data-name="Path 1807" d="M449.047,601.031l.657-.386,13.032,22.174h-1.412l-12.276-20.888Z" transform="translate(-449.612 -597.494)" fill="#fcb47f"/>
              <path id="Path_1808" data-name="Path 1808" d="M452.69,597.839l1.05-.617,13.394,22.791h-1.412Z" transform="translate(-452.598 -594.689)" fill="#fcb37f"/>
              <path id="Path_1809" data-name="Path 1809" d="M458.513,594.417l1.05-.617,13.757,23.408h-1.412Z" transform="translate(-457.372 -591.883)" fill="#fcb280"/>
              <path id="Path_1810" data-name="Path 1810" d="M464.337,590.994l1.05-.617,14.12,24.025h-1.412Z" transform="translate(-462.145 -589.078)" fill="#fcb180"/>
              <path id="Path_1811" data-name="Path 1811" d="M470.16,587.572l1.05-.617,14.2,24.154-.83.488h-.3Z" transform="translate(-466.919 -586.272)" fill="#fcb080"/>
              <rect id="Rectangle_370" data-name="Rectangle 370" width="1.218" height="28.017" transform="matrix(0.862, -0.507, 0.507, 0.862, 4.291, 0.682)" fill="#fcaf80"/>
              <path id="Path_1812" data-name="Path 1812" d="M481.807,583.182l.131-.077h1.236l13.878,23.614-1.05.617Z" transform="translate(-476.466 -583.116)" fill="#fcae80"/>
              <path id="Path_1813" data-name="Path 1813" d="M490.8,583.1l13.516,23-1.05.617L489.391,583.1Z" transform="translate(-482.683 -583.116)" fill="#fcad81"/>
              <path id="Path_1814" data-name="Path 1814" d="M498.638,583.1l13.153,22.38-1.05.617-13.516-23Z" transform="translate(-489.105 -583.116)" fill="#fbac81"/>
              <path id="Path_1815" data-name="Path 1815" d="M506.473,583.1l12.79,21.763-1.05.617L505.06,583.1Z" transform="translate(-495.528 -583.116)" fill="#fbab82"/>
              <path id="Path_1816" data-name="Path 1816" d="M514.308,583.1l12.428,21.146-1.05.617L512.9,583.1Z" transform="translate(-501.95 -583.116)" fill="#fbaa82"/>
              <path id="Path_1817" data-name="Path 1817" d="M522.143,583.1l12.065,20.529-1.05.617L520.73,583.1Z" transform="translate(-508.373 -583.116)" fill="#fba983"/>
              <path id="Path_1818" data-name="Path 1818" d="M529.977,583.1l11.7,19.912-1.05.617L528.565,583.1Z" transform="translate(-514.795 -583.116)" fill="#fba884"/>
              <path id="Path_1819" data-name="Path 1819" d="M537.812,583.1,548.857,601.9v.676l-.755.443L536.4,583.1Z" transform="translate(-521.218 -583.116)" fill="#fba784"/>
              <path id="Path_1820" data-name="Path 1820" d="M545.647,583.1l9.632,16.39v2.4L544.235,583.1Z" transform="translate(-527.64 -583.116)" fill="#fba685"/>
              <path id="Path_1821" data-name="Path 1821" d="M553.482,583.1l8.22,13.986v2.4L552.07,583.1Z" transform="translate(-534.063 -583.116)" fill="#fba585"/>
              <path id="Path_1822" data-name="Path 1822" d="M561.317,583.1l6.808,11.583v2.4L559.9,583.1Z" transform="translate(-540.485 -583.116)" fill="#fba486"/>
              <path id="Path_1823" data-name="Path 1823" d="M569.152,583.1l5.4,9.18v2.4L567.74,583.1Z" transform="translate(-546.908 -583.116)" fill="#fba387"/>
              <path id="Path_1824" data-name="Path 1824" d="M576.987,583.1l3.983,6.777v2.4l-5.4-9.18Z" transform="translate(-553.33 -583.116)" fill="#fba287"/>
              <path id="Path_1825" data-name="Path 1825" d="M584.822,583.1l2.571,4.374v2.4l-3.983-6.777Z" transform="translate(-559.753 -583.116)" fill="#fba188"/>
              <path id="Path_1826" data-name="Path 1826" d="M592.657,583.1l1.158,1.971v2.4l-2.571-4.374Z" transform="translate(-566.175 -583.116)" fill="#fba088"/>
              <path id="Path_1827" data-name="Path 1827" d="M600.237,585.076l-1.158-1.971h1.158Z" transform="translate(-572.598 -583.116)" fill="#fb9f89"/>
            </g>
          </g>
          <path id="Path_1829" data-name="Path 1829" d="M462.419,606.394q-.347,0-.7-.016a13.012,13.012,0,0,1-9.278-4.409,13.12,13.12,0,0,1,9.507-21.789c1.43-.015,2.883-.012,4.288-.007q.973,0,1.945,0h.03l1.972,0c1.575,0,3.2-.006,4.806.008a2.817,2.817,0,0,1,.74,5.531,3.945,3.945,0,0,1-1.034.1q-2.827,0-5.652,0-3.238,0-6.475,0a7.466,7.466,0,0,0-3.361,14.255,7.419,7.419,0,0,0,8.819-2.039,2.9,2.9,0,0,1,3.067-1.2,2.787,2.787,0,0,1,2.013,1.8,2.875,2.875,0,0,1-.513,2.741A12.573,12.573,0,0,1,462.419,606.394Zm1.874-25.144c-.778,0-1.56,0-2.334.011a12.038,12.038,0,0,0-8.705,19.994,11.938,11.938,0,0,0,8.514,4.042,11.564,11.564,0,0,0,9.981-4.591,1.776,1.776,0,0,0,.332-1.713,1.688,1.688,0,0,0-1.24-1.1,1.843,1.843,0,0,0-1.984.834,8.537,8.537,0,1,1-6.292-13.988q3.239-.005,6.477,0,2.825,0,5.65,0a3.007,3.007,0,0,0,.752-.065,1.735,1.735,0,0,0-.466-3.406c-1.6-.014-3.223-.011-4.795-.008l-1.974,0h-.03q-.974,0-1.948,0C465.594,581.252,464.945,581.25,464.293,581.25Z" transform="translate(-449.177 -580.169)" fill="#fff"/>
        </g>
        <g id="Group_496" data-name="Group 496" transform="translate(11.415 8.235)">
          <g id="Group_495" data-name="Group 495" transform="translate(0.541 0.541)">
            <g id="Group_494" data-name="Group 494" clip-path="url(#clip-path-2)">
              <path id="Path_1830" data-name="Path 1830" d="M515.415,654.047l.781,1.328h-.781Z" transform="translate(-515.43 -649.505)" fill="#fcb080"/>
              <path id="Path_1831" data-name="Path 1831" d="M515.415,640.716l2.193,3.731H516.2l-.781-1.328Z" transform="translate(-515.43 -638.577)" fill="#fcaf80"/>
              <path id="Path_1832" data-name="Path 1832" d="M515.415,630.2l.281-.165,3.324,5.656h-1.412l-2.193-3.731Z" transform="translate(-515.43 -629.823)" fill="#fcae80"/>
              <path id="Path_1833" data-name="Path 1833" d="M516.973,629.05l.369-.217h.916l3.452,5.873H520.3Z" transform="translate(-516.708 -628.836)" fill="#fcad81"/>
              <path id="Path_1834" data-name="Path 1834" d="M525.513,628.833l2.946,5.013v.469l-.665.391h-.242l-3.452-5.873Z" transform="translate(-522.55 -628.836)" fill="#fbac81"/>
              <path id="Path_1835" data-name="Path 1835" d="M533.348,628.833l1.534,2.61v2.4l-2.946-5.013Z" transform="translate(-528.973 -628.836)" fill="#fbab82"/>
              <path id="Path_1836" data-name="Path 1836" d="M541.183,628.833l.121.207v2.4l-1.534-2.61Z" transform="translate(-535.395 -628.836)" fill="#fbaa82"/>
              <path id="Path_1837" data-name="Path 1837" d="M547.727,629.04l-.121-.207h.121Z" transform="translate(-541.818 -628.836)" fill="#fba983"/>
            </g>
          </g>
          <path id="Path_1839" data-name="Path 1839" d="M515.989,632.8a3.473,3.473,0,1,1-.014-6.946h.007a3.48,3.48,0,0,1,2.486,1.038,3.42,3.42,0,0,1,1.006,2.457A3.5,3.5,0,0,1,516,632.8h-.011Zm-.006-5.865h-.005a2.406,2.406,0,0,0-2.4,2.37,2.358,2.358,0,0,0,.7,1.692,2.4,2.4,0,0,0,1.712.721h0a2.443,2.443,0,0,0,2.4-2.381,2.345,2.345,0,0,0-.692-1.684A2.406,2.406,0,0,0,515.983,626.934Z" transform="translate(-512.5 -625.852)" fill="#fff"/>
        </g>
        <g id="Group_499" data-name="Group 499" transform="translate(19.897 8.226)">
          <g id="Group_498" data-name="Group 498" transform="translate(0.541 0.541)">
            <g id="Group_497" data-name="Group 497" clip-path="url(#clip-path-3)">
              <path id="Path_1840" data-name="Path 1840" d="M562.54,654.245l.763,1.3h-.763Z" transform="translate(-562.543 -649.658)" fill="#fbaa82"/>
              <path id="Path_1841" data-name="Path 1841" d="M562.54,640.914l2.176,3.7H563.3l-.763-1.3Z" transform="translate(-562.543 -638.73)" fill="#fba983"/>
              <path id="Path_1842" data-name="Path 1842" d="M562.54,630.113l.252-.148,3.336,5.676h-1.412l-2.176-3.7Z" transform="translate(-562.543 -629.755)" fill="#fba884"/>
              <path id="Path_1843" data-name="Path 1843" d="M563.94,628.925l.389-.229h.889l3.47,5.9h-1.412Z" transform="translate(-563.69 -628.715)" fill="#fba784"/>
              <path id="Path_1844" data-name="Path 1844" d="M572.442,628.7l2.925,4.977v.558l-.629.37H574.5l-3.47-5.9Z" transform="translate(-569.502 -628.715)" fill="#fba685"/>
              <path id="Path_1845" data-name="Path 1845" d="M580.277,628.7l1.513,2.574v2.4l-2.925-4.977Z" transform="translate(-575.924 -628.715)" fill="#fba585"/>
              <path id="Path_1846" data-name="Path 1846" d="M588.112,628.7l.1.17v2.4L586.7,628.7Z" transform="translate(-582.347 -628.715)" fill="#fba486"/>
              <path id="Path_1847" data-name="Path 1847" d="M594.634,628.867l-.1-.17h.1Z" transform="translate(-588.769 -628.715)" fill="#fba387"/>
            </g>
          </g>
          <path id="Path_1849" data-name="Path 1849" d="M563.019,632.756h-.028a3.477,3.477,0,1,1,2.472-5.945,3.478,3.478,0,0,1-2.444,5.945Zm0-5.873h-.029a2.4,2.4,0,0,0,.014,4.791h.019a2.4,2.4,0,0,0,0-4.791Z" transform="translate(-559.553 -625.802)" fill="#fff"/>
        </g>
      </g>
      <g id="Group_516" data-name="Group 516" transform="translate(28.108 0.078)">
        <g id="Group_503" data-name="Group 503" transform="translate(33.992 6.241)">
          <g id="Group_502" data-name="Group 502" transform="translate(0.541 0.541)">
            <g id="Group_501" data-name="Group 501" clip-path="url(#clip-path-4)">
              <path id="Path_1850" data-name="Path 1850" d="M796.662,711.839l.6,1.017h-.6Z" transform="translate(-796.662 -694.963)" fill="#fb8d93"/>
              <path id="Path_1851" data-name="Path 1851" d="M796.662,698.508l2.01,3.421H797.26l-.6-1.017Z" transform="translate(-796.662 -684.035)" fill="#fb8c94"/>
              <path id="Path_1852" data-name="Path 1852" d="M796.662,685.177,800.085,691h-1.412l-2.01-3.421Z" transform="translate(-796.662 -673.107)" fill="#fa8a95"/>
              <path id="Path_1853" data-name="Path 1853" d="M796.662,671.846l4.835,8.227h-1.412l-3.423-5.824Z" transform="translate(-796.662 -662.179)" fill="#fa8995"/>
              <path id="Path_1854" data-name="Path 1854" d="M796.662,658.515,802.8,668.95v.2h-1.3l-4.835-8.227Z" transform="translate(-796.662 -651.251)" fill="#fa8896"/>
              <path id="Path_1855" data-name="Path 1855" d="M796.662,645.183l6.133,10.435v2.4l-6.133-10.435Z" transform="translate(-796.662 -640.323)" fill="#fa8796"/>
              <path id="Path_1856" data-name="Path 1856" d="M796.662,631.853l6.133,10.435v2.4l-6.133-10.435Z" transform="translate(-796.662 -629.396)" fill="#fa8697"/>
              <path id="Path_1857" data-name="Path 1857" d="M796.662,618.521l6.133,10.435v2.4l-6.133-10.435Z" transform="translate(-796.662 -618.468)" fill="#fa8598"/>
              <path id="Path_1858" data-name="Path 1858" d="M798.043,618.224l4.752,8.085v2.4l-6.133-10.435v-.054Z" transform="translate(-796.662 -618.224)" fill="#fa8498"/>
              <path id="Path_1859" data-name="Path 1859" d="M805.735,618.224l3.34,5.682v2.4l-4.752-8.085Z" transform="translate(-802.942 -618.224)" fill="#fa8399"/>
              <path id="Path_1860" data-name="Path 1860" d="M813.57,618.224,815.5,621.5v2.4l-3.34-5.682Z" transform="translate(-809.364 -618.224)" fill="#fa8299"/>
              <path id="Path_1861" data-name="Path 1861" d="M821.4,618.224l.515.876v2.4l-1.927-3.279Z" transform="translate(-815.787 -618.224)" fill="#fa819a"/>
              <path id="Path_1862" data-name="Path 1862" d="M828.342,619.1l-.515-.876h.515Z" transform="translate(-822.209 -618.224)" fill="#fa809a"/>
            </g>
          </g>
          <path id="Path_1864" data-name="Path 1864" d="M797.595,634.2a9.06,9.06,0,0,1-1.516-.116,2.973,2.973,0,0,1-1.3-.533,2.622,2.622,0,0,1-.842-1.108,4.3,4.3,0,0,1-.276-1.67V615.638l.444-.081q.4-.072,1.182-.2a10.341,10.341,0,0,1,1.656-.134,9.056,9.056,0,0,1,1.516.116,2.973,2.973,0,0,1,1.3.533,2.629,2.629,0,0,1,.842,1.107,4.313,4.313,0,0,1,.277,1.671v15.135l-.445.08q-.4.073-1.181.2A10.378,10.378,0,0,1,797.595,634.2Zm-2.85-17.655v14.228a3.317,3.317,0,0,0,.192,1.251,1.538,1.538,0,0,0,.493.661,1.908,1.908,0,0,0,.831.332,8,8,0,0,0,1.333.1,9.28,9.28,0,0,0,1.483-.119l.718-.119V618.651a3.331,3.331,0,0,0-.193-1.252,1.54,1.54,0,0,0-.493-.66,1.907,1.907,0,0,0-.831-.333,8,8,0,0,0-1.333-.1,9.255,9.255,0,0,0-1.482.119Z" transform="translate(-793.663 -615.224)" fill="#fff"/>
        </g>
        <g id="Group_506" data-name="Group 506" transform="translate(34.382 5.937)">
          <g id="Group_505" data-name="Group 505" transform="translate(0.584 0.541)">
            <g id="Group_504" data-name="Group 504" clip-path="url(#clip-path-5)">
              <path id="Path_1865" data-name="Path 1865" d="M799.063,715.923l.156.266h-.156Z" transform="translate(-799.063 -698.007)" fill="#fb8d93"/>
              <path id="Path_1866" data-name="Path 1866" d="M799.063,702.592l1.569,2.669h-1.412l-.156-.266Z" transform="translate(-799.063 -687.079)" fill="#fb8c94"/>
              <path id="Path_1867" data-name="Path 1867" d="M799.063,689.261l2.981,5.072h-1.412l-1.569-2.669Z" transform="translate(-799.063 -676.151)" fill="#fa8a95"/>
              <path id="Path_1868" data-name="Path 1868" d="M799.063,675.93l4.393,7.475h-1.412l-2.981-5.072Z" transform="translate(-799.063 -665.223)" fill="#fa8995"/>
              <path id="Path_1869" data-name="Path 1869" d="M799.063,662.6l5.806,9.878h-1.412L799.063,665Z" transform="translate(-799.063 -654.295)" fill="#fa8896"/>
              <path id="Path_1870" data-name="Path 1870" d="M799.063,649.268l7.218,12.281h-1.412l-5.806-9.878Z" transform="translate(-799.063 -643.368)" fill="#fa8796"/>
              <path id="Path_1871" data-name="Path 1871" d="M799.063,635.937l8.631,14.685h-1.412l-7.218-12.281Z" transform="translate(-799.063 -632.44)" fill="#fa8697"/>
              <path id="Path_1872" data-name="Path 1872" d="M799.063,622.606l10.043,17.088h-1.412l-8.631-14.685Z" transform="translate(-799.063 -621.512)" fill="#fa8598"/>
              <path id="Path_1873" data-name="Path 1873" d="M799.063,618.82l.952-.559,10.5,17.871h-1.412l-10.043-17.088Z" transform="translate(-799.063 -617.95)" fill="#fa8498"/>
              <path id="Path_1874" data-name="Path 1874" d="M804.344,616.849l.528-.311h.7L816.26,634.72h-1.412Z" transform="translate(-803.392 -616.538)" fill="#fa8399"/>
              <path id="Path_1875" data-name="Path 1875" d="M812.579,616.538l10.686,18.182h-1.412l-10.686-18.182Z" transform="translate(-808.985 -616.538)" fill="#fa8299"/>
              <path id="Path_1876" data-name="Path 1876" d="M820.414,616.538,831.1,634.72h-1.412L819,616.538Z" transform="translate(-815.407 -616.538)" fill="#fa819a"/>
              <path id="Path_1877" data-name="Path 1877" d="M828.249,616.538,838.6,634.159l-.954.561h-.129l-10.686-18.182Z" transform="translate(-821.83 -616.538)" fill="#fa809a"/>
              <path id="Path_1878" data-name="Path 1878" d="M836.083,616.538l9.412,16.015v1.33l-.469.275-10.356-17.621Z" transform="translate(-828.252 -616.538)" fill="#fa809b"/>
              <path id="Path_1879" data-name="Path 1879" d="M843.918,616.538l8,13.612v2.4l-9.412-16.015Z" transform="translate(-834.675 -616.538)" fill="#fa809c"/>
              <path id="Path_1880" data-name="Path 1880" d="M851.753,616.538l6.588,11.209v2.4l-8-13.612Z" transform="translate(-841.097 -616.538)" fill="#fa7f9c"/>
              <path id="Path_1881" data-name="Path 1881" d="M859.588,616.538l5.175,8.806v2.4l-6.588-11.209Z" transform="translate(-847.519 -616.538)" fill="#fa7e9d"/>
              <path id="Path_1882" data-name="Path 1882" d="M867.423,616.538l3.763,6.4v2.4l-5.175-8.806Z" transform="translate(-853.942 -616.538)" fill="#fa7d9d"/>
              <path id="Path_1883" data-name="Path 1883" d="M875.258,616.538l2.35,4v2.4l-3.763-6.4Z" transform="translate(-860.365 -616.538)" fill="#fa7c9e"/>
              <path id="Path_1884" data-name="Path 1884" d="M883.093,616.538l.938,1.6v2.4l-2.35-4Z" transform="translate(-866.787 -616.538)" fill="#fa7b9f"/>
              <path id="Path_1885" data-name="Path 1885" d="M890.453,618.134l-.938-1.6h.938Z" transform="translate(-873.21 -616.538)" fill="#fa7a9f"/>
            </g>
          </g>
          <path id="Path_1887" data-name="Path 1887" d="M810.4,632.8a3.751,3.751,0,0,1-2.552-.939,12.231,12.231,0,0,1-1.643-1.925l-1.5-2.143-3.4,4.9h-.283c-.109,0-.227.005-.35.016-.165.013-.3.02-.407.02a4.956,4.956,0,0,1-3.132-.874,2.835,2.835,0,0,1-1.161-2.3,3.387,3.387,0,0,1,.5-1.818,15.743,15.743,0,0,1,1.477-1.893l2.581-3-4.706-5.514.055-.26a4.959,4.959,0,0,1,1.279-2.5,3.367,3.367,0,0,1,2.5-1.028,3.208,3.208,0,0,1,2.2.713,12.089,12.089,0,0,1,1.515,1.7l1.871,2.456,3.594-4.87h.273a6.556,6.556,0,0,1,3.42.782,2.688,2.688,0,0,1,1.414,2.356,3.225,3.225,0,0,1-.154,1.018,4.115,4.115,0,0,1-.436.9c-.176.277-.405.6-.68.946s-.578.735-.939,1.192l-.021.025-2.085,2.338,4.592,6.063-.029.22a3.891,3.891,0,0,1-1.261,2.5A3.707,3.707,0,0,1,810.4,632.8Zm-5.7-6.9,2.393,3.412a11.135,11.135,0,0,0,1.5,1.755,2.661,2.661,0,0,0,1.828.648,2.61,2.61,0,0,0,1.793-.659,2.721,2.721,0,0,0,.869-1.615l-4.855-6.412,2.666-2.989.927-1.177c.253-.322.461-.611.618-.858a3.03,3.03,0,0,0,.322-.657,2.151,2.151,0,0,0,.1-.676,1.6,1.6,0,0,0-.9-1.432,5.257,5.257,0,0,0-2.587-.621l-4.124,5.588-2.746-3.6a11.064,11.064,0,0,0-1.372-1.547,2.181,2.181,0,0,0-1.48-.44,2.293,2.293,0,0,0-1.724.7,3.783,3.783,0,0,0-.933,1.716l4.957,5.808-3.188,3.706a15.038,15.038,0,0,0-1.376,1.754,2.3,2.3,0,0,0-.333,1.248,1.779,1.779,0,0,0,.751,1.452,3.94,3.94,0,0,0,2.46.641c.079,0,.185-.005.317-.016l.152-.011Z" transform="translate(-795.824 -613.538)" fill="#fff"/>
        </g>
        <g id="Group_509" data-name="Group 509">
          <g id="Group_508" data-name="Group 508" transform="translate(0.541 0.541)">
            <g id="Group_507" data-name="Group 507" clip-path="url(#clip-path-6)">
              <path id="Path_1888" data-name="Path 1888" d="M608.1,710.943l.693,1.179H608.1Z" transform="translate(-608.099 -687.988)" fill="#fba585"/>
              <path id="Path_1889" data-name="Path 1889" d="M608.1,697.612l2.105,3.582h-1.412l-.693-1.179Z" transform="translate(-608.099 -677.06)" fill="#fba486"/>
              <path id="Path_1890" data-name="Path 1890" d="M608.1,684.281l3.517,5.985H610.2l-2.105-3.582Z" transform="translate(-608.099 -666.132)" fill="#fba387"/>
              <path id="Path_1891" data-name="Path 1891" d="M608.1,670.95l4.93,8.388h-1.412l-3.517-5.985Z" transform="translate(-608.099 -655.204)" fill="#fba287"/>
              <path id="Path_1892" data-name="Path 1892" d="M608.1,657.619l6.133,10.435v.357h-1.2l-4.93-8.388Z" transform="translate(-608.099 -644.276)" fill="#fba188"/>
              <path id="Path_1893" data-name="Path 1893" d="M608.1,644.288l6.133,10.435v2.4L608.1,646.691Z" transform="translate(-608.099 -633.349)" fill="#fba088"/>
              <path id="Path_1894" data-name="Path 1894" d="M608.1,630.957l6.133,10.435v2.4L608.1,633.36Z" transform="translate(-608.099 -622.421)" fill="#fb9f89"/>
              <path id="Path_1895" data-name="Path 1895" d="M608.1,617.626l6.133,10.435v2.4L608.1,620.029Z" transform="translate(-608.099 -611.493)" fill="#fb9e89"/>
              <path id="Path_1896" data-name="Path 1896" d="M608.1,604.3l6.133,10.435v2.4L608.1,606.7Z" transform="translate(-608.099 -600.565)" fill="#fb9d8a"/>
              <path id="Path_1897" data-name="Path 1897" d="M608.1,590.964l6.133,10.435v2.4L608.1,593.367Z" transform="translate(-608.099 -589.637)" fill="#fb9c8b"/>
              <path id="Path_1898" data-name="Path 1898" d="M608.732,583.6l5.5,9.358v2.4L608.1,584.931V583.6Z" transform="translate(-608.099 -583.604)" fill="#fb9b8b"/>
              <path id="Path_1899" data-name="Path 1899" d="M613.021,583.6l4.088,6.955v2.4l-5.5-9.358Z" transform="translate(-610.976 -583.604)" fill="#fb9a8c"/>
              <path id="Path_1900" data-name="Path 1900" d="M620.856,583.6l2.675,4.552v2.4l-4.088-6.955Z" transform="translate(-617.398 -583.604)" fill="#fb998c"/>
              <path id="Path_1901" data-name="Path 1901" d="M628.69,583.6l1.263,2.149v2.4l-2.675-4.552Z" transform="translate(-623.821 -583.604)" fill="#fb988d"/>
              <path id="Path_1902" data-name="Path 1902" d="M636.376,585.753l-1.263-2.149h1.263Z" transform="translate(-630.243 -583.604)" fill="#fb978e"/>
            </g>
          </g>
          <path id="Path_1904" data-name="Path 1904" d="M609.031,605.82a9.062,9.062,0,0,1-1.516-.116,2.973,2.973,0,0,1-1.3-.533,2.621,2.621,0,0,1-.842-1.108,4.3,4.3,0,0,1-.276-1.67V581.018l.444-.081q.4-.073,1.181-.2a10.347,10.347,0,0,1,1.656-.133,9.062,9.062,0,0,1,1.516.116,2.973,2.973,0,0,1,1.3.533,2.632,2.632,0,0,1,.841,1.107,4.312,4.312,0,0,1,.277,1.671v21.375l-.445.08q-.4.073-1.181.2A10.374,10.374,0,0,1,609.031,605.82Zm-2.85-23.9v20.469a3.319,3.319,0,0,0,.192,1.251,1.534,1.534,0,0,0,.493.661,1.907,1.907,0,0,0,.831.333,8,8,0,0,0,1.334.1,9.273,9.273,0,0,0,1.482-.119l.719-.119V584.031a3.33,3.33,0,0,0-.193-1.252,1.542,1.542,0,0,0-.493-.66,1.908,1.908,0,0,0-.831-.333,7.992,7.992,0,0,0-1.334-.1,9.265,9.265,0,0,0-1.482.119Z" transform="translate(-605.099 -580.604)" fill="#fff"/>
        </g>
        <g id="Group_512" data-name="Group 512" transform="translate(17.324)">
          <g id="Group_511" data-name="Group 511" transform="translate(0.541 0.541)">
            <g id="Group_510" data-name="Group 510" clip-path="url(#clip-path-7)">
              <path id="Path_1905" data-name="Path 1905" d="M704.2,714.485l.339.576H704.2Z" transform="translate(-704.2 -690.892)" fill="#fb998c"/>
              <path id="Path_1906" data-name="Path 1906" d="M704.2,701.155l1.751,2.98h-1.412l-.339-.576Z" transform="translate(-704.2 -679.964)" fill="#fb988d"/>
              <path id="Path_1907" data-name="Path 1907" d="M704.2,687.824l3.164,5.383h-1.412l-1.751-2.979Z" transform="translate(-704.2 -669.036)" fill="#fb978e"/>
              <path id="Path_1908" data-name="Path 1908" d="M704.2,674.493l4.576,7.786h-1.412L704.2,676.9Z" transform="translate(-704.2 -658.108)" fill="#fb968e"/>
              <path id="Path_1909" data-name="Path 1909" d="M704.2,661.162l5.988,10.189h-1.412l-4.576-7.786Z" transform="translate(-704.2 -647.18)" fill="#fb958f"/>
              <path id="Path_1910" data-name="Path 1910" d="M704.2,647.831l7.4,12.592h-1.412L704.2,650.234Z" transform="translate(-704.2 -636.253)" fill="#fb948f"/>
              <path id="Path_1911" data-name="Path 1911" d="M704.2,634.5l8.813,15H711.6L704.2,636.9Z" transform="translate(-704.2 -625.325)" fill="#fb9390"/>
              <path id="Path_1912" data-name="Path 1912" d="M704.2,621.169l10.225,17.4h-1.412l-8.813-15Z" transform="translate(-704.2 -614.397)" fill="#fb9290"/>
              <path id="Path_1913" data-name="Path 1913" d="M704.2,607.838l11.638,19.8h-1.412l-10.225-17.4Z" transform="translate(-704.2 -603.469)" fill="#fb9191"/>
              <path id="Path_1914" data-name="Path 1914" d="M704.2,594.507l13.05,22.2h-1.412L704.2,596.91Z" transform="translate(-704.2 -592.541)" fill="#fb9092"/>
              <path id="Path_1915" data-name="Path 1915" d="M704.457,583.6l14.205,24.17H717.25l-13.05-22.2V583.6Z" transform="translate(-704.2 -583.604)" fill="#fb8f92"/>
              <path id="Path_1916" data-name="Path 1916" d="M707.039,583.6l14.168,24.107-.108.064h-1.267L705.627,583.6Z" transform="translate(-705.37 -583.604)" fill="#fb8e93"/>
              <path id="Path_1917" data-name="Path 1917" d="M714.874,583.6l13.805,23.49-1.05.617L713.462,583.6Z" transform="translate(-711.792 -583.604)" fill="#fb8d93"/>
              <path id="Path_1918" data-name="Path 1918" d="M722.709,583.6l12.569,21.386v2l-.176.1L721.3,583.6Z" transform="translate(-718.215 -583.604)" fill="#fb8c94"/>
              <path id="Path_1919" data-name="Path 1919" d="M730.544,583.6,741.7,602.587v2.4L729.131,583.6Z" transform="translate(-724.637 -583.604)" fill="#fa8a95"/>
              <path id="Path_1920" data-name="Path 1920" d="M738.379,583.6l9.744,16.58v2.4L736.966,583.6Z" transform="translate(-731.06 -583.604)" fill="#fa8995"/>
              <path id="Path_1921" data-name="Path 1921" d="M746.214,583.6l8.332,14.176v2.4L744.8,583.6Z" transform="translate(-737.482 -583.604)" fill="#fa8896"/>
              <path id="Path_1922" data-name="Path 1922" d="M754.049,583.6l6.919,11.773v2.4L752.636,583.6Z" transform="translate(-743.905 -583.604)" fill="#fa8796"/>
              <path id="Path_1923" data-name="Path 1923" d="M761.883,583.6l5.507,9.37v2.4L760.471,583.6Z" transform="translate(-750.327 -583.604)" fill="#fa8697"/>
              <path id="Path_1924" data-name="Path 1924" d="M769.718,583.6l4.095,6.967v2.4l-5.507-9.37Z" transform="translate(-756.75 -583.604)" fill="#fa8598"/>
              <path id="Path_1925" data-name="Path 1925" d="M777.553,583.6l2.682,4.564v2.4l-4.094-6.967Z" transform="translate(-763.172 -583.604)" fill="#fa8498"/>
              <path id="Path_1926" data-name="Path 1926" d="M785.388,583.6l1.27,2.161v2.4l-2.682-4.564Z" transform="translate(-769.595 -583.604)" fill="#fa8399"/>
              <path id="Path_1927" data-name="Path 1927" d="M793.08,585.765l-1.27-2.161h1.27Z" transform="translate(-776.017 -583.604)" fill="#fa8299"/>
            </g>
          </g>
          <path id="Path_1929" data-name="Path 1929" d="M715.449,605.856a4.37,4.37,0,0,1-2.341-.64,8.46,8.46,0,0,1-2.089-2.02l-2.6-3.263v5.474l-.445.08q-.4.073-1.181.2a10.376,10.376,0,0,1-1.657.133,9.062,9.062,0,0,1-1.516-.116,2.972,2.972,0,0,1-1.3-.533,2.623,2.623,0,0,1-.842-1.108,4.3,4.3,0,0,1-.276-1.67v-21.3l.4-.108c.282-.077.684-.158,1.227-.246a10.347,10.347,0,0,1,1.657-.133,9.059,9.059,0,0,1,1.516.116,2.972,2.972,0,0,1,1.3.533,2.629,2.629,0,0,1,.841,1.107,4.313,4.313,0,0,1,.277,1.671v8.2l5.437-5.563h.227a5.54,5.54,0,0,1,3.331.934,3.026,3.026,0,0,1,1.358,2.529,3.2,3.2,0,0,1-.219,1.193,4.182,4.182,0,0,1-.641,1.059,8.8,8.8,0,0,1-1.038,1.059q-.6.524-1.392,1.211l-1.652,1.424,5.543,5.543-.028.257a5.042,5.042,0,0,1-1.128,2.9A3.544,3.544,0,0,1,715.449,605.856Zm-8.117-9.011,4.535,5.68a7.574,7.574,0,0,0,1.81,1.772,3.26,3.26,0,0,0,1.771.478,2.485,2.485,0,0,0,1.961-.723,3.8,3.8,0,0,0,.825-2.04l-6-6,2.534-2.184q.79-.683,1.385-1.2a7.748,7.748,0,0,0,.91-.925,3.106,3.106,0,0,0,.478-.782,2.123,2.123,0,0,0,.142-.791,1.974,1.974,0,0,0-.915-1.656,4.34,4.34,0,0,0-2.469-.722l-6.97,7.132V584.031a3.333,3.333,0,0,0-.193-1.252,1.543,1.543,0,0,0-.493-.66,1.908,1.908,0,0,0-.831-.333,7.987,7.987,0,0,0-1.333-.1A9.287,9.287,0,0,0,703,581.8c-.279.046-.518.089-.718.13v20.458a3.317,3.317,0,0,0,.192,1.251,1.533,1.533,0,0,0,.493.661,1.9,1.9,0,0,0,.831.333,8,8,0,0,0,1.333.1,9.278,9.278,0,0,0,1.483-.119l.718-.119Z" transform="translate(-701.2 -580.604)" fill="#fff"/>
        </g>
        <g id="Group_515" data-name="Group 515" transform="translate(2.385 5.772)">
          <g id="Group_514" data-name="Group 514" transform="translate(0.541 0.541)">
            <g id="Group_513" data-name="Group 513" clip-path="url(#clip-path-8)">
              <path id="Path_1930" data-name="Path 1930" d="M656.148,686.05l.68,1.157h-.68Z" transform="translate(-649.871 -673.354)" fill="#fb9d8a"/>
              <path id="Path_1931" data-name="Path 1931" d="M656.148,672.719l2.092,3.56h-1.412l-.68-1.157Z" transform="translate(-649.871 -662.426)" fill="#fb9c8b"/>
              <path id="Path_1932" data-name="Path 1932" d="M656.148,659.388l3.5,5.963H658.24l-2.092-3.56Z" transform="translate(-649.871 -651.499)" fill="#fb9b8b"/>
              <path id="Path_1933" data-name="Path 1933" d="M656.148,646.484l.043-.025,4.874,8.294h-1.412l-3.5-5.963Z" transform="translate(-649.871 -640.9)" fill="#fb9a8c"/>
              <path id="Path_1934" data-name="Path 1934" d="M656.384,643.653l1.05-.617,4.9,8.345-.964.566h-.116Z" transform="translate(-650.064 -638.094)" fill="#fb998c"/>
              <path id="Path_1935" data-name="Path 1935" d="M662.207,642.383l.244-.144h1.083l3.929,6.685v1.6l-.353.207Z" transform="translate(-654.838 -637.441)" fill="#fb988d"/>
              <path id="Path_1936" data-name="Path 1936" d="M670.986,642.239l2.516,4.282v2.4l-3.929-6.685Z" transform="translate(-660.877 -637.441)" fill="#fb978e"/>
              <path id="Path_1937" data-name="Path 1937" d="M678.821,642.239l1.1,1.879v2.4l-2.517-4.282Z" transform="translate(-667.299 -637.441)" fill="#fb968e"/>
              <path id="Path_1938" data-name="Path 1938" d="M686.348,644.118l-1.1-1.879h1.1Z" transform="translate(-673.721 -637.441)" fill="#fb958f"/>
              <path id="Path_1939" data-name="Path 1939" d="M621.328,706.791l1.3,2.216h-1.3Z" transform="translate(-621.328 -690.356)" fill="#fba387"/>
              <path id="Path_1940" data-name="Path 1940" d="M621.328,693.46l2.715,4.619h-1.412l-1.3-2.216Z" transform="translate(-621.328 -679.428)" fill="#fba287"/>
              <path id="Path_1941" data-name="Path 1941" d="M621.328,680.129l4.127,7.022h-1.412l-2.715-4.619Z" transform="translate(-621.328 -668.501)" fill="#fba188"/>
              <path id="Path_1942" data-name="Path 1942" d="M621.328,666.8l5.54,9.425h-1.412l-4.127-7.022Z" transform="translate(-621.328 -657.573)" fill="#fba088"/>
              <path id="Path_1943" data-name="Path 1943" d="M621.328,653.467,628.28,665.3h-1.412l-5.54-9.426Z" transform="translate(-621.328 -646.645)" fill="#fb9f89"/>
              <path id="Path_1944" data-name="Path 1944" d="M621.328,640.136l8.364,14.232H628.28l-6.952-11.829Z" transform="translate(-621.328 -635.717)" fill="#fb9e89"/>
              <path id="Path_1945" data-name="Path 1945" d="M621.328,632.307l.549-.322,9.228,15.7h-1.412l-8.364-14.232Z" transform="translate(-621.328 -629.035)" fill="#fb9d8a"/>
              <path id="Path_1946" data-name="Path 1946" d="M624.372,629.179l1.05-.617,9.591,16.318H633.6Z" transform="translate(-623.824 -626.229)" fill="#fb9c8b"/>
              <path id="Path_1947" data-name="Path 1947" d="M630.2,625.756l1.05-.617,9.953,16.935h-1.412Z" transform="translate(-628.597 -623.424)" fill="#fb9b8b"/>
              <path id="Path_1948" data-name="Path 1948" d="M636.019,622.333l1.05-.617,10.168,17.3-.427.251h-.837Z" transform="translate(-633.371 -620.618)" fill="#fb9a8c"/>
              <rect id="Rectangle_371" data-name="Rectangle 371" width="1.218" height="20.068" transform="matrix(0.862, -0.507, 0.507, 0.862, 3.698, 1.098)" fill="#fb998c"/>
              <path id="Path_1949" data-name="Path 1949" d="M647.666,616.1l.819-.482h.31l10.089,17.165-1.05.617Z" transform="translate(-642.918 -615.623)" fill="#fb988d"/>
              <path id="Path_1950" data-name="Path 1950" d="M655.343,615.623l9.726,16.548-1.05.617-10.089-17.165Z" transform="translate(-648.054 -615.623)" fill="#fb978e"/>
              <path id="Path_1951" data-name="Path 1951" d="M663.178,615.623l9.363,15.931-1.05.617-9.726-16.548Z" transform="translate(-654.476 -615.623)" fill="#fb968e"/>
              <path id="Path_1952" data-name="Path 1952" d="M671.013,615.623l8.789,14.954v.485l-.838.492L669.6,615.623Z" transform="translate(-660.899 -615.623)" fill="#fb958f"/>
              <path id="Path_1953" data-name="Path 1953" d="M678.848,615.623l7.376,12.551v2.4l-8.789-14.954Z" transform="translate(-667.321 -615.623)" fill="#fb948f"/>
              <path id="Path_1954" data-name="Path 1954" d="M686.683,615.623l5.964,10.148v2.4l-7.376-12.551Z" transform="translate(-673.744 -615.623)" fill="#fb9390"/>
              <path id="Path_1955" data-name="Path 1955" d="M694.518,615.623l4.552,7.744v2.4l-5.964-10.148Z" transform="translate(-680.166 -615.623)" fill="#fb9290"/>
              <path id="Path_1956" data-name="Path 1956" d="M702.353,615.623l3.139,5.341v2.4l-4.552-7.744Z" transform="translate(-686.589 -615.623)" fill="#fb9191"/>
              <path id="Path_1957" data-name="Path 1957" d="M710.188,615.623l1.727,2.938v2.4l-3.139-5.341Z" transform="translate(-693.011 -615.623)" fill="#fb9092"/>
              <path id="Path_1958" data-name="Path 1958" d="M718.022,615.623l.314.535v2.4l-1.727-2.938Z" transform="translate(-699.434 -615.623)" fill="#fb8f92"/>
              <path id="Path_1959" data-name="Path 1959" d="M724.759,616.158l-.314-.535h.314Z" transform="translate(-705.856 -615.623)" fill="#fb8e93"/>
            </g>
          </g>
          <path id="Path_1961" data-name="Path 1961" d="M628.321,632.355a11.506,11.506,0,0,1-4.05-.684,9.062,9.062,0,0,1-3.163-1.976,8.855,8.855,0,0,1-2.056-3.129,11.855,11.855,0,0,1,0-8.154,8.859,8.859,0,0,1,2.056-3.129,9.075,9.075,0,0,1,3.163-1.976,11.511,11.511,0,0,1,4.05-.684,11.247,11.247,0,0,1,4.055.7,9.3,9.3,0,0,1,3.158,1.992,8.872,8.872,0,0,1,2.056,3.129,10.9,10.9,0,0,1,.723,4.023,11.459,11.459,0,0,1-.722,4.183,8.652,8.652,0,0,1-2.06,3.134,8.776,8.776,0,0,1-3.169,1.923A12.1,12.1,0,0,1,628.321,632.355Zm0-18.651a10.438,10.438,0,0,0-3.67.615,8,8,0,0,0-2.789,1.74,7.79,7.79,0,0,0-1.8,2.751,9.918,9.918,0,0,0-.647,3.661,10.023,10.023,0,0,0,.647,3.7,7.784,7.784,0,0,0,1.8,2.751,7.993,7.993,0,0,0,2.789,1.74,10.432,10.432,0,0,0,3.67.615,11.027,11.027,0,0,0,3.68-.582,7.706,7.706,0,0,0,2.783-1.685,7.584,7.584,0,0,0,1.8-2.747,10.388,10.388,0,0,0,.648-3.789,9.824,9.824,0,0,0-.647-3.625,7.8,7.8,0,0,0-1.8-2.751,8.221,8.221,0,0,0-2.794-1.759A10.172,10.172,0,0,0,628.321,613.7Zm.036,13.853a3.276,3.276,0,0,1-2.8-1.4,7.635,7.635,0,0,1-.021-7.339,3.472,3.472,0,0,1,5.572,0,6.264,6.264,0,0,1,.929,3.65,6.455,6.455,0,0,1-.906,3.659A3.171,3.171,0,0,1,628.357,627.557Zm-.036-9.055a2.174,2.174,0,0,0-1.9.944,6.633,6.633,0,0,0,.015,6.081,2.219,2.219,0,0,0,1.925.948,2.118,2.118,0,0,0,1.88-.954,5.43,5.43,0,0,0,.718-3.05,5.245,5.245,0,0,0-.73-3.025A2.176,2.176,0,0,0,628.321,618.5Z" transform="translate(-618.329 -612.623)" fill="#fff"/>
        </g>
      </g>
    </g>
    <g id="Group_520" data-name="Group 520" transform="translate(451.15 606.475)">
      <g id="Group_519" data-name="Group 519" transform="translate(0 0)">
        <g id="Group_518" data-name="Group 518" clip-path="url(#clip-path-9)">
          <path id="Path_1962" data-name="Path 1962" d="M461.738,726.1l.27.46h-1.89v-.46Z" transform="translate(-460.119 -726.096)" fill="#fba784"/>
          <path id="Path_1963" data-name="Path 1963" d="M471.033,726.1l.27.46h-1.93l-.27-.46Z" transform="translate(-467.483 -726.096)" fill="#fba685"/>
          <path id="Path_1964" data-name="Path 1964" d="M481.74,726.1l.27.46h-1.93l-.27-.46Z" transform="translate(-476.26 -726.096)" fill="#fba585"/>
          <path id="Path_1965" data-name="Path 1965" d="M492.448,726.1l.27.46h-1.93l-.27-.46Z" transform="translate(-485.038 -726.096)" fill="#fba486"/>
          <path id="Path_1966" data-name="Path 1966" d="M503.155,726.1l.27.46H501.5l-.27-.46Z" transform="translate(-493.815 -726.096)" fill="#fba387"/>
          <path id="Path_1967" data-name="Path 1967" d="M513.863,726.1l.27.46H512.2l-.27-.46Z" transform="translate(-502.592 -726.096)" fill="#fba287"/>
          <path id="Path_1968" data-name="Path 1968" d="M524.571,726.1l.27.46h-1.93l-.27-.46Z" transform="translate(-511.37 -726.096)" fill="#fba188"/>
          <path id="Path_1969" data-name="Path 1969" d="M535.278,726.1l.27.46h-1.93l-.27-.46Z" transform="translate(-520.147 -726.096)" fill="#fba088"/>
          <path id="Path_1970" data-name="Path 1970" d="M545.986,726.1l.27.46h-1.93l-.27-.46Z" transform="translate(-528.924 -726.096)" fill="#fb9f89"/>
          <path id="Path_1971" data-name="Path 1971" d="M556.694,726.1l.27.46h-1.93l-.27-.46Z" transform="translate(-537.702 -726.096)" fill="#fb9e89"/>
          <path id="Path_1972" data-name="Path 1972" d="M567.4,726.1l.27.46h-1.93l-.27-.46Z" transform="translate(-546.479 -726.096)" fill="#fb9d8a"/>
          <path id="Path_1973" data-name="Path 1973" d="M578.109,726.1l.27.46h-1.93l-.27-.46Z" transform="translate(-555.257 -726.096)" fill="#fb9c8b"/>
          <path id="Path_1974" data-name="Path 1974" d="M588.816,726.1l.27.46h-1.93l-.27-.46Z" transform="translate(-564.034 -726.096)" fill="#fb9b8b"/>
          <path id="Path_1975" data-name="Path 1975" d="M599.524,726.1l.27.46h-1.93l-.27-.46Z" transform="translate(-572.811 -726.096)" fill="#fb9a8c"/>
          <path id="Path_1976" data-name="Path 1976" d="M610.232,726.1l.27.46h-1.93l-.27-.46Z" transform="translate(-581.589 -726.096)" fill="#fb998c"/>
          <path id="Path_1977" data-name="Path 1977" d="M620.939,726.1l.27.46h-1.93l-.27-.46Z" transform="translate(-590.366 -726.096)" fill="#fb988d"/>
          <path id="Path_1978" data-name="Path 1978" d="M631.647,726.1l.27.46h-1.93l-.27-.46Z" transform="translate(-599.143 -726.096)" fill="#fb978e"/>
          <path id="Path_1979" data-name="Path 1979" d="M642.354,726.1l.27.46h-1.93l-.27-.46Z" transform="translate(-607.921 -726.096)" fill="#fb968e"/>
          <path id="Path_1980" data-name="Path 1980" d="M653.062,726.1l.27.46H651.4l-.27-.46Z" transform="translate(-616.698 -726.096)" fill="#fb958f"/>
          <path id="Path_1981" data-name="Path 1981" d="M663.77,726.1l.27.46h-1.93l-.27-.46Z" transform="translate(-625.476 -726.096)" fill="#fb948f"/>
          <path id="Path_1982" data-name="Path 1982" d="M674.477,726.1l.27.46h-1.93l-.27-.46Z" transform="translate(-634.253 -726.096)" fill="#fb9390"/>
          <path id="Path_1983" data-name="Path 1983" d="M685.185,726.1l.27.46h-1.93l-.27-.46Z" transform="translate(-643.03 -726.096)" fill="#fb9290"/>
          <path id="Path_1984" data-name="Path 1984" d="M695.893,726.1l.27.46h-1.93l-.27-.46Z" transform="translate(-651.808 -726.096)" fill="#fb9191"/>
          <path id="Path_1985" data-name="Path 1985" d="M706.6,726.1l.27.46h-1.93l-.27-.46Z" transform="translate(-660.585 -726.096)" fill="#fb9092"/>
          <path id="Path_1986" data-name="Path 1986" d="M717.308,726.1l.27.46h-1.93l-.27-.46Z" transform="translate(-669.362 -726.096)" fill="#fb8f92"/>
          <path id="Path_1987" data-name="Path 1987" d="M728.015,726.1l.27.46h-1.93l-.27-.46Z" transform="translate(-678.14 -726.096)" fill="#fb8e93"/>
          <path id="Path_1988" data-name="Path 1988" d="M738.723,726.1l.27.46h-1.93l-.27-.46Z" transform="translate(-686.917 -726.096)" fill="#fb8d93"/>
          <path id="Path_1989" data-name="Path 1989" d="M749.431,726.1l.27.46h-1.93l-.27-.46Z" transform="translate(-695.695 -726.096)" fill="#fb8c94"/>
          <path id="Path_1990" data-name="Path 1990" d="M760.138,726.1l.27.46h-1.93l-.27-.46Z" transform="translate(-704.472 -726.096)" fill="#fa8a95"/>
          <path id="Path_1991" data-name="Path 1991" d="M770.846,726.1l.27.46h-1.93l-.27-.46Z" transform="translate(-713.249 -726.096)" fill="#fa8995"/>
          <path id="Path_1992" data-name="Path 1992" d="M781.554,726.1l.27.46h-1.93l-.27-.46Z" transform="translate(-722.027 -726.096)" fill="#fa8896"/>
          <path id="Path_1993" data-name="Path 1993" d="M792.261,726.1l.27.46H790.6l-.27-.46Z" transform="translate(-730.804 -726.096)" fill="#fa8796"/>
          <path id="Path_1994" data-name="Path 1994" d="M802.969,726.1l.27.46h-1.93l-.27-.46Z" transform="translate(-739.581 -726.096)" fill="#fa8697"/>
          <path id="Path_1995" data-name="Path 1995" d="M813.676,726.1l.27.46h-1.93l-.27-.46Z" transform="translate(-748.359 -726.096)" fill="#fa8598"/>
          <path id="Path_1996" data-name="Path 1996" d="M824.384,726.1l.27.46h-1.93l-.27-.46Z" transform="translate(-757.136 -726.096)" fill="#fa8498"/>
          <path id="Path_1997" data-name="Path 1997" d="M835.092,726.1l.27.46h-1.93l-.27-.46Z" transform="translate(-765.913 -726.096)" fill="#fa8399"/>
          <path id="Path_1998" data-name="Path 1998" d="M845.8,726.1l.27.46h-1.93l-.27-.46Z" transform="translate(-774.691 -726.096)" fill="#fa8299"/>
          <path id="Path_1999" data-name="Path 1999" d="M856.507,726.1l.27.46h-1.93l-.27-.46Z" transform="translate(-783.468 -726.096)" fill="#fa819a"/>
          <path id="Path_2000" data-name="Path 2000" d="M867.215,726.1l.27.46h-1.93l-.27-.46Z" transform="translate(-792.246 -726.096)" fill="#fa809a"/>
          <path id="Path_2001" data-name="Path 2001" d="M877.922,726.1l.014.025v.435h-1.674l-.27-.46Z" transform="translate(-801.023 -726.096)" fill="#fa809b"/>
          <path id="Path_2002" data-name="Path 2002" d="M886.714,726.121l-.015-.025h.015Z" transform="translate(-809.8 -726.096)" fill="#fa809c"/>
        </g>
      </g>
    </g>
  </g>
</svg>
