<svg xmlns="http://www.w3.org/2000/svg" xmlns:xlink="http://www.w3.org/1999/xlink" width="152" height="152" viewBox="0 0 152 152">
  <defs>
    <filter id="Rectangle_361" x="0" y="0" width="152" height="152" filterUnits="userSpaceOnUse">
      <feOffset dy="3" input="SourceAlpha"/>
      <feGaussianBlur stdDeviation="22" result="blur"/>
      <feFlood flood-opacity="0.078"/>
      <feComposite operator="in" in2="blur"/>
      <feComposite in="SourceGraphic"/>
    </filter>
  </defs>
  <g id="Group_528" data-name="Group 528" transform="translate(17 -239)">
    <g transform="matrix(1, 0, 0, 1, -17, 239)" filter="url(#Rectangle_361)">
      <rect id="Rectangle_361-2" data-name="Rectangle 361" width="20" height="20" rx="10" transform="translate(66 63)" fill="#9292b1"/>
    </g>
    <g id="categories" transform="translate(53.917 306.993)">
      <g id="Group_531" data-name="Group 531" transform="translate(0.295 0)">
        <g id="Group_530" data-name="Group 530">
          <g id="Group_529" data-name="Group 529">
            <path id="Path_2018" data-name="Path 2018" d="M52.61,52.417H51.525a1.356,1.356,0,0,0-1.355,1.355v.475a.146.146,0,1,0,.293,0v-.475a1.063,1.063,0,0,1,1.062-1.062H52.61a1.063,1.063,0,0,1,1.062,1.062v1.65a.5.5,0,0,1-.5.5h-1.65a1.063,1.063,0,0,1-1.06-.994.146.146,0,0,0-.292.018,1.356,1.356,0,0,0,1.352,1.268h1.65a.791.791,0,0,0,.79-.79v-1.65A1.356,1.356,0,0,0,52.61,52.417Z" transform="translate(-49.195 -51.392)" fill="#fff"/>
            <path id="Path_2019" data-name="Path 2019" d="M270.15,52.417h-1.085a1.356,1.356,0,0,0-1.355,1.355v1.65a.791.791,0,0,0,.79.79h1.65a1.356,1.356,0,0,0,1.355-1.355V53.772A1.356,1.356,0,0,0,270.15,52.417Zm1.062,2.44a1.063,1.063,0,0,1-1.062,1.062H268.5a.5.5,0,0,1-.5-.5v-1.65a1.063,1.063,0,0,1,1.062-1.062h1.085a1.063,1.063,0,0,1,1.062,1.062Z" transform="translate(-262.483 -51.392)" fill="#fff"/>
            <path id="Path_2020" data-name="Path 2020" d="M53.174,265.462h-1.65a1.356,1.356,0,0,0-1.355,1.354V267.9a1.356,1.356,0,0,0,1.355,1.355H52.61a1.356,1.356,0,0,0,1.355-1.355v-1.65A.791.791,0,0,0,53.174,265.462Zm.5,2.44a1.063,1.063,0,0,1-1.062,1.062H51.525a1.063,1.063,0,0,1-1.062-1.062v-1.085a1.063,1.063,0,0,1,1.062-1.062h1.65a.5.5,0,0,1,.5.5v1.65Z" transform="translate(-49.195 -260.273)" fill="#fff"/>
            <path id="Path_2021" data-name="Path 2021" d="M270.033,265.895a1.874,1.874,0,0,0-.78.168.146.146,0,0,0,.121.267,1.6,1.6,0,1,1-.5.361.146.146,0,0,0-.213-.2,1.889,1.889,0,1,0,1.377-.6Z" transform="translate(-262.909 -260.698)" fill="#fff"/>
            <path id="Path_2022" data-name="Path 2022" d="M332.583,297.78a.146.146,0,1,0-.16.245.782.782,0,0,0,.409.148v.12a.146.146,0,0,0,.293,0v-.133a.653.653,0,0,0,.49-.524.567.567,0,0,0-.39-.648l-.1-.036v-.565a.36.36,0,0,1,.124.064l.034.031a.146.146,0,0,0,.2-.216l-.034-.031a.678.678,0,0,0-.322-.148v-.107a.146.146,0,0,0-.293,0v.118l-.044.012a.538.538,0,0,0-.369.422.476.476,0,0,0,.157.469,1.226,1.226,0,0,0,.257.148v.732A.507.507,0,0,1,332.583,297.78Zm.542-.517h0a.279.279,0,0,1,.2.324.358.358,0,0,1-.2.265Zm-.369-.494a.19.19,0,0,1-.05-.184.257.257,0,0,1,.125-.179v.414A.678.678,0,0,1,332.756,296.769Z" transform="translate(-325.866 -290.051)" fill="#fff"/>
            <path id="Path_2023" data-name="Path 2023" d="M438.242.583a.876.876,0,0,1-.419-.457.209.209,0,0,0-.384,0,.876.876,0,0,1-.419.457.209.209,0,0,0,0,.378.876.876,0,0,1,.419.457.209.209,0,0,0,.384,0,.876.876,0,0,1,.419-.457.209.209,0,0,0,0-.378Zm-.611.567a1.147,1.147,0,0,0-.352-.378,1.147,1.147,0,0,0,.352-.378,1.147,1.147,0,0,0,.352.378A1.148,1.148,0,0,0,437.631,1.15Z" transform="translate(-428.366 0)" fill="#fff"/>
            <path id="Path_2024" data-name="Path 2024" d="M1.637,433.582a.876.876,0,0,1-.419-.457.209.209,0,0,0-.384,0,.876.876,0,0,1-.419.457.209.209,0,0,0,0,.378.876.876,0,0,1,.419.457.209.209,0,0,0,.384,0,.876.876,0,0,1,.419-.457.209.209,0,0,0,0-.378Zm-.611.567a.379.379,0,0,1,0-.756.379.379,0,0,1,0,.756Z" transform="translate(-0.295 -424.536)" fill="#fff"/>
          </g>
        </g>
      </g>
    </g>
  </g>
</svg>
