<svg id="touch" xmlns="http://www.w3.org/2000/svg" width="13.491" height="13.5" viewBox="0 0 13.491 13.5">
  <path id="Path_2077" data-name="Path 2077" d="M56.443,248.389a.264.264,0,0,0-.439.292,9.617,9.617,0,0,0,1.459,1.641.263.263,0,1,0,.358-.386A9.238,9.238,0,0,1,56.443,248.389Zm0,0" transform="translate(-54.497 -241.725)" fill="#9292b1"/>
  <path id="Path_2078" data-name="Path 2078" d="M41,211.683v0a.263.263,0,0,0-.263-.262h0a.264.264,0,0,0-.263.264v.009a.264.264,0,0,0,.263.26h0A.263.263,0,0,0,41,211.683Zm0,0" transform="translate(-39.419 -205.843)" fill="#9292b1"/>
  <path id="Path_2079" data-name="Path 2079" d="M13.961,114.164l-.48-.919a5.35,5.35,0,0,0-.959-1.306l-1.313-1.313a.792.792,0,0,0-1.305.291.8.8,0,0,0-.613.023,2.9,2.9,0,0,0-2.325-4.475,2.68,2.68,0,0,0-1.837.748,2.68,2.68,0,0,0-1.837-.748A2.921,2.921,0,0,0,.5,109.495c0,.964.763,2.158,2.267,3.55a21.142,21.142,0,0,0,2.213,1.776.263.263,0,0,0,.3,0,21.165,21.165,0,0,0,1.9-1.494l.9.9-.254-.076a.821.821,0,0,0-.664,1.488l1.465.9a3.057,3.057,0,0,0,1.13.414l1.321.206a.264.264,0,0,0,.081-.521l-1.321-.205a2.534,2.534,0,0,1-.936-.343l-1.465-.9a.294.294,0,0,1,.238-.533l1.253.374a.263.263,0,0,0,.262-.439L6.48,111.883a.266.266,0,0,1,.376-.376l2.459,2.459a.264.264,0,0,0,.373-.373l-1.236-1.236a.266.266,0,1,1,.375-.376l.237.237h0l1,1a.264.264,0,0,0,.373-.373l-1-1a.266.266,0,0,1,.376-.376l1,1a.263.263,0,0,0,.373-.373l-.723-.723a.266.266,0,1,1,.376-.375l1.313,1.313a4.821,4.821,0,0,1,.865,1.177l.48.919a.264.264,0,0,0,.467-.244Zm-6.037-2.334-.7-.7a.793.793,0,1,0-1.121,1.121l.7.7c-.716.63-1.388,1.123-1.676,1.328a21.263,21.263,0,0,1-2-1.623c-1.373-1.27-2.1-2.364-2.1-3.163a2.4,2.4,0,0,1,2.265-2.5,2.149,2.149,0,0,1,1.637.774.264.264,0,0,0,.4,0,2.149,2.149,0,0,1,1.637-.774,2.4,2.4,0,0,1,2.265,2.5,3.423,3.423,0,0,1-.959,1.973.8.8,0,0,0-.348.361Zm0,0" transform="translate(-0.5 -103.658)" fill="#9292b1"/>
  <path id="Path_2080" data-name="Path 2080" d="M166.31.527a.263.263,0,0,0,.186-.45.263.263,0,1,0-.186.45Zm0,0" transform="translate(-161.682 0)" fill="#9292b1"/>
  <path id="Path_2081" data-name="Path 2081" d="M222.72,41.854a.263.263,0,0,0,.186-.077l.644-.644a.264.264,0,0,0-.373-.373l-.644.644a.263.263,0,0,0,.186.45Zm0,0" transform="translate(-216.604 -39.61)" fill="#9292b1"/>
  <path id="Path_2082" data-name="Path 2082" d="M85.922,41.767a.263.263,0,0,0,.373-.373l-.642-.643a.264.264,0,0,0-.373.373Zm0,0" transform="translate(-82.969 -39.602)" fill="#9292b1"/>
  <path id="Path_2083" data-name="Path 2083" d="M166.31,40.676a.263.263,0,0,0-.263.263v.825a.264.264,0,0,0,.527,0v-.825A.264.264,0,0,0,166.31,40.676Zm0,0" transform="translate(-161.682 -39.603)" fill="#9292b1"/>
</svg>
