<svg xmlns="http://www.w3.org/2000/svg" width="18.311" height="18.311" viewBox="0 0 18.311 18.311">
  <g id="google_1_" data-name="google (1)" transform="translate(0.001 0)">
    <path id="Union_3" data-name="Union 3" d="M-660.8-573.309h0a9.065,9.065,0,0,1-1.3-4.635,9.065,9.065,0,0,1,1.3-4.635h0a9.158,9.158,0,0,1,7.853-4.521,9.126,9.126,0,0,1,5.847,2.16.565.565,0,0,1,.193.4c0,.009,0,.019,0,.028a.551.551,0,0,1-.152.369l-2.3,2.285-.009.01a.519.519,0,0,1-.341.151h-.048a.533.533,0,0,1-.281-.094l-.019-.013a4.8,4.8,0,0,0-2.9-.966,4.862,4.862,0,0,0-4.624,3.423,5.005,5.005,0,0,0-.2,1.406,5,5,0,0,0,.2,1.4,4.862,4.862,0,0,0,4.624,3.423,4.754,4.754,0,0,0,2.832-.923,4.93,4.93,0,0,0,.648-.561,4.647,4.647,0,0,0,.844-1.2h-4.325a.531.531,0,0,1-.535-.536v-3.219a.531.531,0,0,1,.535-.536h8.47a.531.531,0,0,1,.526.44,9.118,9.118,0,0,1,.16,1.706h0a9.141,9.141,0,0,1-3.265,6.963h0a9.137,9.137,0,0,1-5.891,2.192A9.159,9.159,0,0,1-660.8-573.309Z" transform="translate(662.1 587.1)" fill="#9292b1"/>
  </g>
</svg>
