<svg xmlns="http://www.w3.org/2000/svg" width="18.311" height="18.311" viewBox="0 0 18.311 18.311">
  <path id="Union_2" data-name="Union 2" d="M-652.945-568.789a9.159,9.159,0,0,1-7.853-4.52h0a9.065,9.065,0,0,1-1.3-4.635,9.065,9.065,0,0,1,1.3-4.635h0a9.158,9.158,0,0,1,7.853-4.521,9.126,9.126,0,0,1,5.847,2.16.565.565,0,0,1,.193.4c0,.009,0,.019,0,.028a.55.55,0,0,1-.151.369l-2.3,2.285-.01.01a.515.515,0,0,1-.341.151h-.047a.532.532,0,0,1-.281-.094l-.018-.013a4.8,4.8,0,0,0-2.9-.966,4.862,4.862,0,0,0-4.624,3.423,5.005,5.005,0,0,0-.2,1.406,5.007,5.007,0,0,0,.2,1.4h0a4.862,4.862,0,0,0,4.624,3.423,4.754,4.754,0,0,0,2.832-.923,4.748,4.748,0,0,0,1.492-1.759h-4.325v-4.292h8.469a.53.53,0,0,1,.526.44,9.116,9.116,0,0,1,.161,1.706,9.141,9.141,0,0,1-3.265,6.963h0A9.137,9.137,0,0,1-652.945-568.789Z" transform="translate(662.1 587.1)" fill="#9088ff"/>
</svg>
