<svg xmlns="http://www.w3.org/2000/svg" width="25" height="25" viewBox="0 0 25 25">
  <g id="HOME" transform="translate(-7.1 -7.1)">
    <path id="Path_22" data-name="Path 22" d="M12.77,32.1A5.677,5.677,0,0,1,7.1,26.43V17.978a5.705,5.705,0,0,1,2.23-4.51L16.16,8.26a5.673,5.673,0,0,1,6.875,0l2.747,2.089V8.356a.65.65,0,0,1,1.3,0v3.3a.659.659,0,0,1-.362.583.629.629,0,0,1-.286.065.645.645,0,0,1-.392-.131L22.257,9.295a4.377,4.377,0,0,0-5.308-.005L10.118,14.5A4.384,4.384,0,0,0,8.4,17.973V26.43A4.377,4.377,0,0,0,12.77,30.8H26.43A4.381,4.381,0,0,0,30.8,26.425V17.978a4.385,4.385,0,0,0-1.7-3.485.643.643,0,0,1-.121-.909.652.652,0,0,1,.517-.256.63.63,0,0,1,.387.131,5.718,5.718,0,0,1,2.215,4.52V26.43a5.677,5.677,0,0,1-5.67,5.67Zm8.839-7.593a.894.894,0,1,1,.9-.894A.877.877,0,0,1,21.609,24.507Zm-4.018,0a.894.894,0,1,1,.9-.894A.877.877,0,0,1,17.591,24.507Zm4.018-4.018a.894.894,0,1,1,.9-.894A.877.877,0,0,1,21.609,20.489Zm-4.018,0a.878.878,0,0,1-.9-.9.9.9,0,0,1,1.8,0,.875.875,0,0,1-.9.9Z" fill="#9292b1"/>
  </g>
</svg>
