<svg id="alert_1_" data-name="alert (1)" xmlns="http://www.w3.org/2000/svg" width="72.122" height="72.122" viewBox="0 0 72.122 72.122">
  <path id="Path_2012" data-name="Path 2012" d="M47.564,48.061H14.508A4.513,4.513,0,0,1,10,43.554a4.29,4.29,0,0,1,.706-2.4L27.2,14.161a4.486,4.486,0,0,1,7.687.024L51.4,41.207a4.223,4.223,0,0,1,.673,2.347A4.513,4.513,0,0,1,47.564,48.061ZM31.036,15.005a1.448,1.448,0,0,0-1.256.7L13.236,42.775a1.334,1.334,0,0,0-.231.778,1.505,1.505,0,0,0,1.5,1.5H47.564a1.505,1.505,0,0,0,1.5-1.5,1.289,1.289,0,0,0-.2-.724l-16.564-27.1a1.461,1.461,0,0,0-1.271-.724Z" transform="translate(20.051 24.061)" fill="#fff"/>
  <path id="Path_2013" data-name="Path 2013" d="M18,30.026a1.5,1.5,0,0,1-1.5-1.5V16.5a1.5,1.5,0,1,1,3.005,0v12.02A1.5,1.5,0,0,1,18,30.026Z" transform="translate(33.084 30.076)" fill="#fff"/>
  <circle id="Ellipse_72" data-name="Ellipse 72" cx="1.503" cy="1.503" r="1.503" transform="translate(49.584 63.107)" fill="#fff"/>
  <path id="Path_2014" data-name="Path 2014" d="M10.518,42.046H4.508A4.513,4.513,0,0,1,0,37.538V19.508A4.513,4.513,0,0,1,4.508,15h6.01a4.513,4.513,0,0,1,4.508,4.508V37.538A4.513,4.513,0,0,1,10.518,42.046ZM4.508,18.005a1.505,1.505,0,0,0-1.5,1.5V37.538a1.505,1.505,0,0,0,1.5,1.5h6.01a1.505,1.505,0,0,0,1.5-1.5V19.508a1.505,1.505,0,0,0-1.5-1.5Z" transform="translate(0 30.076)" fill="#fff"/>
  <path id="Path_2015" data-name="Path 2015" d="M10.9,50.066h-.391A4.513,4.513,0,0,1,6,45.559V15.508A4.513,4.513,0,0,1,10.508,11h6.01a4.513,4.513,0,0,1,4.508,4.508v12.02a1.5,1.5,0,1,1-3.005,0V15.508a1.505,1.505,0,0,0-1.5-1.5h-6.01a1.505,1.505,0,0,0-1.5,1.5V45.559a1.505,1.505,0,0,0,1.5,1.5H10.9a1.5,1.5,0,1,1,0,3.005Z" transform="translate(12.031 22.056)" fill="#fff"/>
  <path id="Path_2016" data-name="Path 2016" d="M13.5,32.046a1.5,1.5,0,0,1-1.5-1.5V9.508A4.513,4.513,0,0,1,16.508,5h6.01a4.513,4.513,0,0,1,4.508,4.508v9.015a1.5,1.5,0,1,1-3.005,0V9.508a1.505,1.505,0,0,0-1.5-1.5h-6.01a1.505,1.505,0,0,0-1.5,1.5V30.543A1.5,1.5,0,0,1,13.5,32.046Z" transform="translate(24.061 10.025)" fill="#fff"/>
  <path id="Path_2017" data-name="Path 2017" d="M31.523,45.076a1.5,1.5,0,0,1-1.5-1.5V4.508a1.505,1.505,0,0,0-1.5-1.5h-6.01a1.505,1.505,0,0,0-1.5,1.5V28.548a1.5,1.5,0,1,1-3.005,0V4.508A4.513,4.513,0,0,1,22.508,0h6.01a4.513,4.513,0,0,1,4.508,4.508V43.574A1.5,1.5,0,0,1,31.523,45.076Z" transform="translate(36.092)" fill="#fff"/>
</svg>
