<svg id="closed-envelope-email" xmlns="http://www.w3.org/2000/svg" width="12.222" height="10" viewBox="0 0 12.222 10">
  <g id="Group_93" data-name="Group 93">
    <path id="Path_167" data-name="Path 167" d="M12.222,40.143a.478.478,0,0,0-.476-.476H.476A.478.478,0,0,0,0,40.143v9.048a.478.478,0,0,0,.476.476h11.27a.478.478,0,0,0,.476-.476ZM.952,48.715V43.072l4.786,4.119a.432.432,0,0,0,.3.111.555.555,0,0,0,.325-.111l4.9-4.1v5.627Zm10.317-8.1v1.23c-.079.008-.04.016-.048.016L6.048,46.207.968,41.842c-.008-.008-.016-.016-.016-.024v-1.2Z" transform="translate(0 -39.667)" fill="#9292b1"/>
  </g>
</svg>
