<svg id="Group_38" data-name="Group 38" xmlns="http://www.w3.org/2000/svg" width="15" height="7.485" viewBox="0 0 15 7.485">
  <g id="Group_311" data-name="Group 311" transform="translate(0 0)">
    <path id="Path_260" data-name="Path 260" d="M73.6,88.318h9.723c.265,0,.448.341.448.838s-.183.839-.448.839H73.58c-.266,0-.448-.342-.448-.839C73.148,88.659,73.331,88.318,73.6,88.318Z" transform="translate(-73.132 -88.318)" fill="#9292b1"/>
    <path id="Path_261" data-name="Path 261" d="M64.513,94.126H78.227c.374,0,.631.342.631.839s-.257.838-.631.838H64.489c-.374,0-.631-.341-.631-.838C63.881,94.468,64.138,94.126,64.513,94.126Z" transform="translate(-63.858 -88.318)" fill="#9292b1"/>
  </g>
</svg>
