<svg xmlns="http://www.w3.org/2000/svg" width="13.599" height="15" viewBox="0 0 13.599 15">
  <g id="Groupe_102" transform="translate(-34.525 -14.6)">
    <g id="Group_37" data-name="Group 37" transform="translate(34.525 14.6)">
      <g id="Tracé_178_7_" transform="translate(0 0)">
        <path id="Path_23" data-name="Path 23" d="M41.312,29.6a2.213,2.213,0,0,1-2.187-1.89.265.265,0,0,0-.262-.228H34.811a.29.29,0,0,1-.2-.5c.009-.009.016-.019.025-.028a3.735,3.735,0,0,0,.552-.97,8.34,8.34,0,0,0,.546-3.219c0-1.659.359-3.93,2.068-5.328a4.659,4.659,0,0,1,1.638-.88.264.264,0,0,0,.187-.253,1.9,1.9,0,0,1,.412-1.176,1.621,1.621,0,0,1,1.2-.53.7.7,0,0,1,.081,0h.028c.031,0,.066,0,.1,0a1.6,1.6,0,0,1,1.188.53,1.954,1.954,0,0,1,.4,1.154.268.268,0,0,0,.187.25,4.678,4.678,0,0,1,1.634.9c.936.792,2.052,2.367,2.052,5.359a8.526,8.526,0,0,0,.536,3.244,2.858,2.858,0,0,0,.543.92l.012.012.028.028.006.006a.277.277,0,0,1,.072.3.3.3,0,0,1-.237.184l-.034.006h-4.07a.265.265,0,0,0-.262.228,2.21,2.21,0,0,1-1.865,1.865A2.311,2.311,0,0,1,41.312,29.6Zm0-.583h.019A1.66,1.66,0,0,0,42.9,27.822a.273.273,0,0,0-.044-.234.267.267,0,0,0-.212-.106H40a.267.267,0,0,0-.212.106.271.271,0,0,0-.044.234A1.655,1.655,0,0,0,41.309,29.017ZM40.158,16.905a.3.3,0,0,1-.2.112h-.006a3.82,3.82,0,0,0-1.887.942c-.792.711-1.74,2.121-1.74,4.81a9,9,0,0,1-.721,3.762.261.261,0,0,0,.019.253.271.271,0,0,0,.225.122H46.8a.263.263,0,0,0,.225-.125.259.259,0,0,0,.012-.256,8.511,8.511,0,0,1-.7-3.74c0-2.24-.618-3.893-1.84-4.922a3.918,3.918,0,0,0-1.784-.876c-.006,0-.012,0-.019,0a.285.285,0,0,1-.2-.119l0,0a.286.286,0,0,1-.053-.218v0a1.6,1.6,0,0,0-.256-1.163l-.012-.012a1.065,1.065,0,0,0-.755-.318c-.034,0-.072,0-.106.006a.989.989,0,0,0-.836.324,1.652,1.652,0,0,0-.265,1.2A.315.315,0,0,1,40.158,16.905Z" transform="translate(-34.525 -14.6)" fill="#9292b1"/>
      </g>
    </g>
  </g>
</svg>
