<svg xmlns="http://www.w3.org/2000/svg" width="48.204" height="43.668" viewBox="0 0 48.204 43.668">
  <g id="chat" transform="translate(0 -24.089)" opacity="0.5">
    <g id="Group_618" data-name="Group 618" transform="translate(0 24.089)">
      <path id="Path_2084" data-name="Path 2084" d="M95.957,161.279a.706.706,0,0,0-.706-.706H75.586a.706.706,0,1,0,0,1.412H95.251A.706.706,0,0,0,95.957,161.279Z" transform="translate(-67.83 -147.723)" fill="#9088ff"/>
      <path id="Path_2085" data-name="Path 2085" d="M91.923,229.5H75.586a.706.706,0,1,0,0,1.412H91.923a.706.706,0,0,0,0-1.412Z" transform="translate(-67.83 -210.157)" fill="#9088ff"/>
      <path id="Path_2086" data-name="Path 2086" d="M91.923,298.419H75.586a.706.706,0,1,0,0,1.412H91.923a.706.706,0,0,0,0-1.412Z" transform="translate(-67.83 -272.591)" fill="#9088ff"/>
      <path id="Path_2087" data-name="Path 2087" d="M309.146,42.051a9.994,9.994,0,0,1-3.737-7.814V33.4a6.162,6.162,0,0,0-3.235-5.418v-.97a2.922,2.922,0,0,0-5.844,0v.97A6.162,6.162,0,0,0,293.1,33.4v.837a9.994,9.994,0,0,1-3.736,7.814,1.635,1.635,0,0,0,1.021,2.912h4.514a4.586,4.586,0,0,0,8.718,0h4.514a1.635,1.635,0,0,0,1.021-2.912Zm-11.4-15.04a1.51,1.51,0,1,1,3.019,0v.419a6.159,6.159,0,0,0-3.019,0Zm1.51,19.7a3.175,3.175,0,0,1-2.836-1.749h5.671A3.175,3.175,0,0,1,299.252,46.712Zm8.873-3.161H290.38a.223.223,0,0,1-.135-.4,11.4,11.4,0,0,0,4.262-8.914V33.4a4.745,4.745,0,0,1,9.49,0v.837a11.4,11.4,0,0,0,4.263,8.914A.223.223,0,0,1,308.125,43.551Z" transform="translate(-261.558 -24.089)" fill="#9088ff"/>
      <path id="Path_2088" data-name="Path 2088" d="M41.952,93.986a.706.706,0,0,0-.706.706v6.043a4.243,4.243,0,0,1-4.238,4.238H15.594a2.3,2.3,0,0,0-1.589.634l-7.642,7.254,1.125-6.249a1.392,1.392,0,0,0-1.37-1.639H5.65a4.243,4.243,0,0,1-4.238-4.238v-19.3A4.243,4.243,0,0,1,5.65,77.2H30.2a.706.706,0,0,0,0-1.412H5.65A5.656,5.656,0,0,0,0,81.436v19.3a5.657,5.657,0,0,0,5.65,5.65h.444l-1.214,6.74a1.241,1.241,0,0,0,2.076,1.12l8.021-7.614a.893.893,0,0,1,.617-.246H37.008a5.656,5.656,0,0,0,5.65-5.65V94.692a.706.706,0,0,0-.706-.706Z" transform="translate(0 -70.919)" fill="#9088ff"/>
    </g>
  </g>
</svg>
