<svg xmlns="http://www.w3.org/2000/svg" width="16.434" height="21.246" viewBox="0 0 16.434 21.246">
  <g id="OFFRE" transform="translate(-57.98 0)">
    <path id="Path_1570" data-name="Path 1570" d="M312.854,199.562a.951.951,0,0,0-.95.95v.818a.95.95,0,0,0-.773,1.649l1.092.97a.962.962,0,0,0,1.262,0l1.092-.97a.951.951,0,0,0,.079-1.341h0a.944.944,0,0,0-.654-.317.958.958,0,0,0-.2.009v-.818A.951.951,0,0,0,312.854,199.562Zm1.111,2.381a.326.326,0,0,1,.226.109h0a.328.328,0,0,1-.027.463l-1.092.97a.336.336,0,0,1-.435,0l-1.092-.97a.328.328,0,0,1,.435-.49l.028.025a.311.311,0,0,0,.518-.233v-1.305a.328.328,0,0,1,.655,0v1.305a.311.311,0,0,0,.518.233l.028-.025A.326.326,0,0,1,313.965,201.943Z" transform="translate(-242.341 -191.281)" fill="#9292b1"/>
    <path id="Path_1571" data-name="Path 1571" d="M154.375,230.874a.311.311,0,0,0,.407-.167l3.1-7.387a.311.311,0,0,0-.574-.241l-3.1,7.387A.311.311,0,0,0,154.375,230.874Z" transform="translate(-92.212 -213.64)" fill="#9292b1"/>
    <path id="Path_1572" data-name="Path 1572" d="M108.555,214.6a1.918,1.918,0,1,0,1.681,1.9A1.8,1.8,0,0,0,108.555,214.6Zm0,3.183a1.3,1.3,0,1,1,1.059-1.28A1.187,1.187,0,0,1,108.555,217.779Z" transform="translate(-46.865 -205.691)" fill="#9292b1"/>
    <path id="Path_1573" data-name="Path 1573" d="M211.13,338.207a1.694,1.694,0,1,0-1.681,1.9A1.8,1.8,0,0,0,211.13,338.207Zm-1.681,1.28a1.3,1.3,0,1,1,1.059-1.28A1.187,1.187,0,0,1,209.449,339.487Z" transform="translate(-143.572 -322.349)" fill="#9292b1"/>
    <path id="Path_1574" data-name="Path 1574" d="M65.408,251.564H59.329a.727.727,0,0,1-.726-.726V241.25a.311.311,0,0,0-.622,0v9.588a1.35,1.35,0,0,0,1.349,1.349h6.079a.311.311,0,0,0,0-.622Z" transform="translate(0 -230.941)" fill="#9292b1"/>
    <path id="Path_1575" data-name="Path 1575" d="M70.513,6.694a3.9,3.9,0,0,0-.926.111V6.588a1.342,1.342,0,0,0-.505-1.052l-4.455-3.57a1.353,1.353,0,0,0-.532-.261V.311a.311.311,0,1,0-.622,0V1.7a1.354,1.354,0,0,0-.532.261l-4.455,3.57a1.342,1.342,0,0,0-.505,1.052V8.953a.311.311,0,1,0,.622,0V6.588a.723.723,0,0,1,.272-.567l4.455-3.57a.736.736,0,0,1,.143-.089v.925a1.138,1.138,0,1,0,.622,0V2.361a.734.734,0,0,1,.143.089l4.455,3.57a.723.723,0,0,1,.272.567v.427a3.9,3.9,0,0,0,0,7.16V19.9a.727.727,0,0,1-.726.726H66.764a.311.311,0,1,0,0,.622h1.474A1.35,1.35,0,0,0,69.586,19.9V14.385a3.9,3.9,0,0,0,3.171-.6.311.311,0,0,0-.358-.509,3.277,3.277,0,1,1,.861-.892.311.311,0,0,0,.521.34,3.9,3.9,0,0,0-3.268-6.032ZM64.3,4.381a.515.515,0,1,1-.826-.41v.134a.311.311,0,1,0,.622,0V3.971A.514.514,0,0,1,64.3,4.381Z" fill="#9292b1"/>
  </g>
</svg>
