<svg id="open-padlock" xmlns="http://www.w3.org/2000/svg" width="7.701" height="10" viewBox="0 0 7.701 10">
  <g id="Group_34" data-name="Group 34" transform="translate(0)">
    <path id="Path_57" data-name="Path 57" d="M58.091,10h4.851a1.41,1.41,0,0,0,1.425-1.408V5.443A1.394,1.394,0,0,0,63.333,4.08V2.569A2.549,2.549,0,0,0,60.8,0h-.575a2.568,2.568,0,0,0-2.557,2.563.346.346,0,0,0,.345.345.351.351,0,0,0,.345-.351A1.871,1.871,0,0,1,60.229.69H60.8a1.857,1.857,0,0,1,1.839,1.879V4.023H58.091a1.425,1.425,0,0,0-1.425,1.425V8.6A1.409,1.409,0,0,0,58.091,10Zm5.586-1.425a.733.733,0,0,1-.736.736H58.091a.733.733,0,0,1-.736-.736V5.448a.733.733,0,0,1,.736-.736h4.851a.733.733,0,0,1,.736.736V8.575Z" transform="translate(-56.666)" fill="#9292b1"/>
    <path id="Path_58" data-name="Path 58" d="M224.209,330.611a.377.377,0,0,0,.376-.376v-1.191a.376.376,0,1,0-.752,0v1.191A.377.377,0,0,0,224.209,330.611Z" transform="translate(-220.473 -322.132)" fill="#9292b1"/>
  </g>
</svg>
