<svg id="cellphone-backside" xmlns="http://www.w3.org/2000/svg" width="14" height="23.956" viewBox="0 0 14 23.956">
  <g id="Group_109" data-name="Group 109" transform="translate(0)">
    <path id="Path_193" data-name="Path 193" d="M104.667,3.267A3.266,3.266,0,0,0,101.4,0H93.934a3.266,3.266,0,0,0-3.267,3.267V20.689a3.266,3.266,0,0,0,3.267,3.267H101.4a3.266,3.266,0,0,0,3.267-3.267ZM102.8,20.689a1.394,1.394,0,0,1-1.4,1.4H93.934a1.394,1.394,0,0,1-1.4-1.4V3.267a1.394,1.394,0,0,1,1.4-1.4H101.4a1.394,1.394,0,0,1,1.4,1.4Z" transform="translate(-90.667)" fill="#9292b1"/>
    <path id="Path_194" data-name="Path 194" d="M199.266,320.167a.871.871,0,0,0-.653.28.96.96,0,0,0-.28.653.9.9,0,0,0,.28.653.96.96,0,0,0,.653.28.9.9,0,0,0,.653-.28.96.96,0,0,0,.28-.653.9.9,0,0,0-.28-.653A.871.871,0,0,0,199.266,320.167Z" transform="translate(-192.422 -302.589)" fill="#9292b1"/>
  </g>
</svg>
