<svg id="cellphone-backside" xmlns="http://www.w3.org/2000/svg" width="7.809" height="13.361" viewBox="0 0 7.809 13.361">
  <g id="Group_109" data-name="Group 109" transform="translate(0)">
    <path id="Path_193" data-name="Path 193" d="M98.476,1.822A1.822,1.822,0,0,0,96.654,0H92.489a1.822,1.822,0,0,0-1.822,1.822v9.717a1.822,1.822,0,0,0,1.822,1.822h4.165a1.822,1.822,0,0,0,1.822-1.822Zm-1.041,9.717a.778.778,0,0,1-.781.781H92.489a.778.778,0,0,1-.781-.781V1.822a.778.778,0,0,1,.781-.781h4.165a.778.778,0,0,1,.781.781Z" transform="translate(-90.667)" fill="#9292b1"/>
    <path id="Path_194" data-name="Path 194" d="M198.854,320.167a.486.486,0,0,0-.364.156.536.536,0,0,0-.156.364.5.5,0,0,0,.156.364.536.536,0,0,0,.364.156.5.5,0,0,0,.364-.156.536.536,0,0,0,.156-.364.5.5,0,0,0-.156-.364A.486.486,0,0,0,198.854,320.167Z" transform="translate(-195.036 -310.363)" fill="#9292b1"/>
  </g>
</svg>
