<svg xmlns="http://www.w3.org/2000/svg" width="10.977" height="10.062" viewBox="0 0 10.977 10.062">
  <g id="image-gallery_2_" data-name="image-gallery (2)" transform="translate(0 -2)">
    <g id="Group_544" data-name="Group 544" transform="translate(0 5.522)">
      <path id="Path_2026" data-name="Path 2026" d="M7.983,16.241a.912.912,0,0,1-.233-.03L.677,14.317A.923.923,0,0,1,.03,13.2L.923,9.87a.229.229,0,0,1,.442.118L.473,13.313a.464.464,0,0,0,.325.562l7.07,1.893a.455.455,0,0,0,.557-.322l.357-1.324a.229.229,0,1,1,.442.119l-.357,1.322a.914.914,0,0,1-.883.677Z" transform="translate(0 -9.701)" fill="#fff"/>
    </g>
    <g id="Group_545" data-name="Group 545" transform="translate(1.83 2)">
      <path id="Path_2027" data-name="Path 2027" d="M12.233,9.318H4.915A.916.916,0,0,1,4,8.4V2.915A.916.916,0,0,1,4.915,2h7.318a.916.916,0,0,1,.915.915V8.4A.916.916,0,0,1,12.233,9.318ZM4.915,2.457a.458.458,0,0,0-.457.457V8.4a.458.458,0,0,0,.457.457h7.318A.458.458,0,0,0,12.69,8.4V2.915a.458.458,0,0,0-.457-.457Z" transform="translate(-4 -2)" fill="#fff"/>
    </g>
    <g id="Group_546" data-name="Group 546" transform="translate(3.202 3.372)">
      <path id="Path_2028" data-name="Path 2028" d="M7.915,6.83a.915.915,0,1,1,.915-.915A.916.916,0,0,1,7.915,6.83Zm0-1.372a.457.457,0,1,0,.457.457A.458.458,0,0,0,7.915,5.457Z" transform="translate(-7 -5)" fill="#fff"/>
    </g>
    <g id="Group_547" data-name="Group 547" transform="translate(1.862 4.538)">
      <path id="Path_2029" data-name="Path 2029" d="M4.3,11.84a.228.228,0,0,1-.162-.39L6.3,9.29a.7.7,0,0,1,.97,0l.643.643L9.69,7.8a.687.687,0,0,1,.522-.247h.005a.686.686,0,0,1,.521.239l2.392,2.791a.229.229,0,1,1-.347.3L10.391,8.087a.226.226,0,0,0-.174-.08.243.243,0,0,0-.176.082L8.1,10.418a.228.228,0,0,1-.166.082.22.22,0,0,1-.172-.067l-.82-.82a.235.235,0,0,0-.323,0l-2.16,2.16a.228.228,0,0,1-.161.067Z" transform="translate(-4.07 -7.55)" fill="#fff"/>
    </g>
  </g>
</svg>
