<svg xmlns="http://www.w3.org/2000/svg" width="12.366" height="11.835" viewBox="0 0 12.366 11.835">
  <path id="Path_2060" data-name="Path 2060" d="M115.893,121.753a1.57,1.57,0,1,1-1.57-1.57A1.572,1.572,0,0,1,115.893,121.753Zm-3.14-5.8a1.57,1.57,0,1,0,1.57-1.57A1.572,1.572,0,0,0,112.753,115.956Zm-5.8,2.9a1.57,1.57,0,1,0,1.57-1.57A1.572,1.572,0,0,0,106.956,118.854Zm-1.594,2.536a.362.362,0,1,0,0,.725h6.695a2.3,2.3,0,0,1,0-.725Zm11.641,0h-.415a2.3,2.3,0,0,1,0,.725H117a.362.362,0,0,0,0-.725Zm-11.641-2.174h.9a2.3,2.3,0,0,1,0-.725h-.9a.362.362,0,1,0,0,.725ZM117,118.492h-6.212a2.3,2.3,0,0,1,0,.725H117a.362.362,0,0,0,0-.725Zm-11.641-2.174h6.695a2.3,2.3,0,0,1,0-.725h-6.695a.362.362,0,0,0,0,.725ZM117,115.594h-.415a2.3,2.3,0,0,1,0,.725H117a.362.362,0,0,0,0-.725Zm0-2.174a.362.362,0,0,0,0-.725h-6.212a2.3,2.3,0,0,1,0,.725Zm-11.641,0h.9a2.3,2.3,0,0,1,0-.725h-.9a.362.362,0,0,0,0,.725Zm3.164,1.208a1.57,1.57,0,1,0-1.57-1.57A1.572,1.572,0,0,0,108.526,114.628Z" transform="translate(-105 -111.488)" fill="#9292b1"/>
</svg>
