<svg xmlns="http://www.w3.org/2000/svg" width="66.643" height="72.109" viewBox="0 0 66.643 72.109">
  <g id="Group_533" data-name="Group 533" transform="translate(0 0)">
    <path id="Path_2025" data-name="Path 2025" d="M808.693-183.783a20.738,20.738,0,0,1-1.963-1.536c-3.556-3.514-7.078-7.062-10.62-10.59a1.293,1.293,0,0,1-.51-1.36,1.028,1.028,0,0,1,1.485-.58,3.01,3.01,0,0,1,.584.5q5.455,5.449,10.905,10.9a3.594,3.594,0,0,0,.409.386c.411.3.781.133.841-.377a6.588,6.588,0,0,0,.014-.774q0-5.845,0-11.689c0-1.222.315-1.54,1.54-1.54l30.7,0c1.126,0,1.149-.023,1.15-1.14q0-6.267,0-12.534c0-1.019-.042-1.059-1.088-1.06-1.737,0-3.475-.024-5.211.02a1.659,1.659,0,0,0-1.023.431c-2.032,1.984-4.027,4-6.039,6.01a2.561,2.561,0,0,1-2.766.716,2.461,2.461,0,0,1-1.754-2.015,9.594,9.594,0,0,1-.045-1.616c-.005-1.147,0-2.294,0-3.548-1.1,0-2.146.009-3.192,0-.722-.008-1.13-.345-1.186-.936-.064-.684.39-1.155,1.175-1.168,1.031-.017,2.063,0,3.149,0v-5.051H812v5.05h1.806c1.08,0,2.16-.021,3.24.006a1.04,1.04,0,0,1,1.083,1.06,1.027,1.027,0,0,1-1.094,1.038q-3.027.025-6.055,0c-.8-.007-1.139-.432-1.14-1.359q-.007-5.211,0-10.421c0-.587.034-1.176-.013-1.759a4.434,4.434,0,0,0-.291-.936,3.105,3.105,0,0,0-.878.428c-2.422,2.39-4.823,4.8-7.229,7.209l-13.394,13.394c-.807.807-.808.83-.025,1.613q2.738,2.739,5.477,5.477c.133.133.272.26.393.4a1.056,1.056,0,0,1,0,1.514,1.033,1.033,0,0,1-1.513-.052c-.4-.363-.769-.758-1.151-1.14q-2.463-2.465-4.927-4.932a2.653,2.653,0,0,1,0-4.134q5.921-5.929,11.849-11.852c.176-.176.34-.362.617-.657-1.3,0-2.468-.063-3.623.014a2.872,2.872,0,0,1-3.253-3.2c.09-4.247.025-8.5.027-12.745q0-3.034,3.022-3.033,14.681,0,29.363,0h1v-.879c0-3.685-.025-7.37.012-11.055a2.589,2.589,0,0,1,3.8-2.3,3.594,3.594,0,0,1,.829.643Q840.48-244.42,851-233.883a2.631,2.631,0,0,1,0,4.036q-2.679,2.7-5.379,5.376a1.091,1.091,0,0,1-1.618.126,1.1,1.1,0,0,1,.132-1.618c.113-.12.231-.234.347-.35q2.416-2.415,4.829-4.831c.68-.681.683-.763.03-1.415q-10.331-10.332-20.664-20.663a2.935,2.935,0,0,0-.468-.424c-.405-.26-.671-.089-.778.336a2.659,2.659,0,0,0-.021.631q0,5.915,0,11.83c0,1.326-.287,1.618-1.6,1.618l-30.631,0c-1.128,0-1.155.026-1.155,1.135q0,6.3,0,12.6c0,.94.056.994,1.01.995,1.76,0,3.521.024,5.281-.019a1.66,1.66,0,0,0,1.025-.426c2.048-2,4.057-4.042,6.091-6.058a2.509,2.509,0,0,1,2.912-.6,2.51,2.51,0,0,1,1.607,2.5q0,.739,0,1.479v3.129h.864q6.549,0,13.1,0c1.178,0,1.495.32,1.495,1.507,0,3.99-.007,7.98.014,11.97a3.818,3.818,0,0,0,.292,1.007,3.487,3.487,0,0,0,.928-.476q5.722-5.68,11.412-11.392c.166-.166.326-.339.5-.492a1.061,1.061,0,0,1,1.461-.036,1.021,1.021,0,0,1,.024,1.508c-.707.753-1.45,1.471-2.182,2.2-.428.425-.865.842-1.457,1.417,1.376,0,2.535-.007,3.692,0a5.9,5.9,0,0,1,1.187.087,2.485,2.485,0,0,1,2.04,2.446q.029,6.935,0,13.871a2.579,2.579,0,0,1-2.784,2.552c-2.371.014-4.741.009-7.112.009l-22.463-.005h-1.011v.8c0,3.451-.051,6.9.027,10.351a3.14,3.14,0,0,1-2.017,3.394Z" transform="translate(-785.302 255.892)" fill="#fff"/>
  </g>
</svg>
