<svg id="sort" xmlns="http://www.w3.org/2000/svg" width="110.218" height="125.341" viewBox="0 0 110.218 125.341">
  <g id="Group_12" data-name="Group 12" transform="translate(0 0)">
    <path id="Path_20" data-name="Path 20" d="M63.664,100.141a5.123,5.123,0,0,0,5.108-5.108V5.13A5.083,5.083,0,0,0,60.6,1.043L27.226,26.073a5.108,5.108,0,1,0,6.13,8.173l25.2-18.9V95.033A5.123,5.123,0,0,0,63.664,100.141Z" transform="translate(-25.165 0)" fill="#fff"/>
    <path id="Path_21" data-name="Path 21" d="M251.9,86.771a5.123,5.123,0,0,0-5.108,5.108v89.052a5.245,5.245,0,0,0,2.809,4.6,5.624,5.624,0,0,0,2.3.511,5.1,5.1,0,0,0,3.065-1.022l33.374-24.6a5.117,5.117,0,1,0-6.045-8.258L257.005,170.8V91.879A5.123,5.123,0,0,0,251.9,86.771Z" transform="translate(-180.196 -60.698)" fill="#fff"/>
  </g>
</svg>
