<svg id="categories" xmlns="http://www.w3.org/2000/svg" width="72.008" height="72.091" viewBox="0 0 72.008 72.091">
  <g id="Group_531" data-name="Group 531" transform="translate(0 0)">
    <g id="Group_530" data-name="Group 530">
      <g id="Group_529" data-name="Group 529">
        <path id="Path_2018" data-name="Path 2018" d="M67.745,52.417H59.928a9.769,9.769,0,0,0-9.758,9.758V65.6a1.055,1.055,0,0,0,2.109,0V62.175a7.657,7.657,0,0,1,7.649-7.649h7.817a7.657,7.657,0,0,1,7.648,7.649V74.06a3.585,3.585,0,0,1-3.581,3.581H59.928a7.659,7.659,0,0,1-7.633-7.157,1.055,1.055,0,0,0-2.1.133,9.772,9.772,0,0,0,9.738,9.133H71.813a5.7,5.7,0,0,0,5.69-5.69V62.175A9.769,9.769,0,0,0,67.745,52.417Z" transform="translate(-43.147 -45.037)" fill="#fff"/>
        <path id="Path_2019" data-name="Path 2019" d="M285.285,52.417h-7.817a9.769,9.769,0,0,0-9.758,9.758V74.06a5.7,5.7,0,0,0,5.69,5.69h11.885a9.769,9.769,0,0,0,9.758-9.758V62.175A9.769,9.769,0,0,0,285.285,52.417Zm7.649,17.575a7.657,7.657,0,0,1-7.649,7.649H273.4a3.585,3.585,0,0,1-3.581-3.581V62.175a7.657,7.657,0,0,1,7.649-7.649h7.817a7.657,7.657,0,0,1,7.649,7.649Z" transform="translate(-230.057 -45.037)" fill="#fff"/>
        <path id="Path_2020" data-name="Path 2020" d="M71.813,265.462H59.928a9.769,9.769,0,0,0-9.758,9.757v7.818a9.769,9.769,0,0,0,9.758,9.758h7.817a9.769,9.769,0,0,0,9.758-9.758V271.152A5.7,5.7,0,0,0,71.813,265.462Zm3.581,17.575a7.657,7.657,0,0,1-7.648,7.649H59.928a7.657,7.657,0,0,1-7.649-7.649v-7.818a7.657,7.657,0,0,1,7.649-7.649H71.813a3.585,3.585,0,0,1,3.581,3.581v11.885Z" transform="translate(-43.147 -228.084)" fill="#fff"/>
        <path id="Path_2021" data-name="Path 2021" d="M281.75,265.895a13.5,13.5,0,0,0-5.619,1.211,1.054,1.054,0,0,0,.872,1.92,11.51,11.51,0,1,1-3.633,2.6,1.055,1.055,0,0,0-1.537-1.444,13.606,13.606,0,1,0,9.918-4.291Z" transform="translate(-230.43 -228.456)" fill="#fff"/>
        <path id="Path_2022" data-name="Path 2022" d="M333.988,309.859a1.055,1.055,0,1,0-1.155,1.765,5.633,5.633,0,0,0,2.95,1.069v.866a1.055,1.055,0,0,0,2.109,0V312.6a4.7,4.7,0,0,0,3.529-3.773,4.082,4.082,0,0,0-2.808-4.671c-.237-.083-.479-.171-.721-.262v-4.07a2.6,2.6,0,0,1,.894.458l.247.227a1.054,1.054,0,1,0,1.427-1.553l-.245-.226a4.886,4.886,0,0,0-2.323-1.069v-.772a1.055,1.055,0,1,0-2.109,0v.849c-.1.025-.211.053-.319.085a3.875,3.875,0,0,0-2.656,3.039,3.429,3.429,0,0,0,1.127,3.377,8.835,8.835,0,0,0,1.848,1.069v5.27A3.648,3.648,0,0,1,333.988,309.859Zm3.9-3.723.018.006a2.013,2.013,0,0,1,1.431,2.333,2.58,2.58,0,0,1-1.449,1.908Zm-2.655-3.558a1.367,1.367,0,0,1-.357-1.327,1.851,1.851,0,0,1,.9-1.29v2.982A4.875,4.875,0,0,1,335.237,302.578Z" transform="translate(-285.601 -254.179)" fill="#fff"/>
        <path id="Path_2023" data-name="Path 2023" d="M446.57,4.2A6.312,6.312,0,0,1,443.549.91a1.5,1.5,0,0,0-2.765,0A6.312,6.312,0,0,1,437.763,4.2a1.5,1.5,0,0,0,0,2.721,6.313,6.313,0,0,1,3.021,3.291,1.5,1.5,0,0,0,2.765,0,6.312,6.312,0,0,1,3.021-3.291,1.5,1.5,0,0,0,0-2.721Zm-4.4,4.082a8.265,8.265,0,0,0-2.533-2.721,8.268,8.268,0,0,0,2.533-2.721A8.258,8.258,0,0,0,444.7,5.562,8.26,8.26,0,0,0,442.167,8.283Z" transform="translate(-375.425 0)" fill="#fff"/>
        <path id="Path_2024" data-name="Path 2024" d="M9.965,437.2a6.315,6.315,0,0,1-3.021-3.291,1.5,1.5,0,0,0-2.765,0A6.313,6.313,0,0,1,1.158,437.2a1.5,1.5,0,0,0,0,2.721,6.311,6.311,0,0,1,3.021,3.291,1.5,1.5,0,0,0,2.765,0,6.31,6.31,0,0,1,3.021-3.291,1.5,1.5,0,0,0,0-2.721Zm-4.4,4.082a8.262,8.262,0,0,0-2.533-2.721,8.264,8.264,0,0,0,2.533-2.721,8.266,8.266,0,0,0,2.533,2.721A8.263,8.263,0,0,0,5.561,441.282Z" transform="translate(-0.295 -372.032)" fill="#fff"/>
      </g>
    </g>
  </g>
</svg>
