<svg id="tag" xmlns="http://www.w3.org/2000/svg" width="62.477" height="72.09" viewBox="0 0 62.477 72.09">
  <path id="Path_2005" data-name="Path 2005" d="M100.81,252.818a2.4,2.4,0,0,1,2.4,2.4,1.2,1.2,0,0,0,2.4,0,4.806,4.806,0,0,0-3.6-4.635v-1.372a1.2,1.2,0,0,0-2.4,0v1.372a4.8,4.8,0,0,0,1.2,9.441,2.4,2.4,0,1,1-2.4,2.4,1.2,1.2,0,0,0-2.4,0,4.807,4.807,0,0,0,3.6,4.635v1.372a1.2,1.2,0,0,0,2.4,0v-1.369a4.8,4.8,0,0,0-1.2-9.445,2.4,2.4,0,0,1,0-4.806Zm0,0" transform="translate(-81.586 -210.764)" fill="#fff"/>
  <path id="Path_2006" data-name="Path 2006" d="M104.414,200.012H97.205a1.2,1.2,0,1,0,0,2.4h7.209a1.2,1.2,0,1,0,0-2.4Zm0,0" transform="translate(-81.586 -169.973)" fill="#fff"/>
  <path id="Path_2007" data-name="Path 2007" d="M104.414,424.012H97.205a1.2,1.2,0,0,0,0,2.4h7.209a1.2,1.2,0,1,0,0-2.4Zm0,0" transform="translate(-81.586 -360.332)" fill="#fff"/>
  <path id="Path_2008" data-name="Path 2008" d="M61.03,46.259,43.392,15.711a20.233,20.233,0,0,0,2.862-3.566c2-3.244,2.361-6.324,1.007-8.668-2.695-4.668-11.2-4.63-19.374.085a29.725,29.725,0,0,0-3.123,2.106l-.97-1.1a6.087,6.087,0,0,0-9.131,0L1.527,19.452A6.085,6.085,0,0,0,0,23.481v37.8A10.825,10.825,0,0,0,10.817,72.091H27.638A10.825,10.825,0,0,0,38.451,61.277v-37.8a6.072,6.072,0,0,0-.961-3.265H37.5a29.349,29.349,0,0,0,4.076-2.842L58.95,47.46a8.41,8.41,0,0,1-3.077,11.491l-14.567,8.41a8.337,8.337,0,0,1-2.042.831,1.2,1.2,0,0,0,.618,2.323,10.8,10.8,0,0,0,2.62-1.073l14.567-8.41A10.812,10.812,0,0,0,61.03,46.259ZM36.048,61.277a8.42,8.42,0,0,1-8.41,8.41H10.817a8.42,8.42,0,0,1-8.41-8.41v-37.8a3.688,3.688,0,0,1,.923-2.441L16.464,6.159a3.68,3.68,0,0,1,5.527,0l11.718,13.28a19.888,19.888,0,0,1-8.568,1.9,5.944,5.944,0,0,0,.093-.912,6.014,6.014,0,0,0-6.007-6.007,1.172,1.172,0,0,0-.385.078,1.188,1.188,0,0,0-1.3.917,6.716,6.716,0,0,0,.587,4.879,6.509,6.509,0,0,0,3.5,2.808,3.589,3.589,0,0,1-6.007-2.675,1.2,1.2,0,0,0-2.4,0,6,6,0,0,0,11.046,3.251,14.073,14.073,0,0,0,1.424.078,23.172,23.172,0,0,0,9.649-2.429,3.673,3.673,0,0,1,.71,2.154ZM22.832,20.427a3.586,3.586,0,0,1-.053.525,4.367,4.367,0,0,1-2.572-1.86,3.854,3.854,0,0,1-.457-2.216A3.6,3.6,0,0,1,22.832,20.427Zm13.465-2.3c-.12.07-.24.13-.36.2L26.361,7.469a27.253,27.253,0,0,1,2.727-1.82c6.768-3.909,14.138-4.351,16.09-.961.893,1.544.548,3.749-.97,6.206a17.2,17.2,0,0,1-2.066,2.663l-.012-.022A6.086,6.086,0,0,0,38.8,10.807l-4.7-1.59a1.2,1.2,0,0,0-.765,2.277l4.705,1.582a3.692,3.692,0,0,1,2.018,1.652l.306.53A26.769,26.769,0,0,1,36.3,18.129Zm0,0" transform="translate(-0.004 0)" fill="#fff"/>
  <path id="Path_2009" data-name="Path 2009" d="M272.165,285.053a1.2,1.2,0,0,0,1.641.439l8.324-4.806a1.2,1.2,0,1,0-1.2-2.081l-8.324,4.806A1.2,1.2,0,0,0,272.165,285.053Zm0,0" transform="translate(-231.154 -236.623)" fill="#fff"/>
  <path id="Path_2010" data-name="Path 2010" d="M282.294,327.821a1.2,1.2,0,0,0,1.641.44l10.4-6.007a1.2,1.2,0,0,0-1.2-2.082l-10.405,6.007A1.2,1.2,0,0,0,282.294,327.821Zm0,0" transform="translate(-239.761 -271.95)" fill="#fff"/>
  <path id="Path_2011" data-name="Path 2011" d="M280.927,248.61a1.2,1.2,0,0,0,.6-.161l4.161-2.4a1.2,1.2,0,1,0-1.2-2.081l-4.162,2.4a1.2,1.2,0,0,0,.6,2.242Zm0,0" transform="translate(-237.717 -207.185)" fill="#fff"/>
</svg>
