<svg xmlns="http://www.w3.org/2000/svg" xmlns:xlink="http://www.w3.org/1999/xlink" width="152" height="152" viewBox="0 0 152 152">
  <defs>
    <filter id="Rectangle_361" x="0" y="0" width="152" height="152" filterUnits="userSpaceOnUse">
      <feOffset dy="3" input="SourceAlpha"/>
      <feGaussianBlur stdDeviation="22" result="blur"/>
      <feFlood flood-opacity="0.078"/>
      <feComposite operator="in" in2="blur"/>
      <feComposite in="SourceGraphic"/>
    </filter>
  </defs>
  <g id="Group_526" data-name="Group 526" transform="translate(17 -239)">
    <g transform="matrix(1, 0, 0, 1, -17, 239)" filter="url(#Rectangle_361)">
      <rect id="Rectangle_361-2" data-name="Rectangle 361" width="20" height="20" rx="10" transform="translate(66 63)" fill="#9292b1"/>
    </g>
    <g id="tag" transform="translate(54.996 307)">
      <path id="Path_2005" data-name="Path 2005" d="M96.671,248.679a.334.334,0,0,1,.334.334.167.167,0,0,0,.334,0,.667.667,0,0,0-.5-.643v-.19a.167.167,0,1,0-.334,0v.19a.666.666,0,0,0,.167,1.311.334.334,0,1,1-.334.334.167.167,0,0,0-.334,0,.667.667,0,0,0,.5.643v.19a.167.167,0,0,0,.334,0v-.19a.666.666,0,0,0-.167-1.311.334.334,0,1,1,0-.667Zm0,0" transform="translate(-93.999 -242.841)" fill="#fff"/>
      <path id="Path_2006" data-name="Path 2006" d="M97.171,200.012h-1a.167.167,0,1,0,0,.334h1a.167.167,0,1,0,0-.334Zm0,0" transform="translate(-93.999 -195.841)" fill="#fff"/>
      <path id="Path_2007" data-name="Path 2007" d="M97.171,424.012h-1a.167.167,0,1,0,0,.334h1a.167.167,0,1,0,0-.334Zm0,0" transform="translate(-93.999 -415.172)" fill="#fff"/>
      <path id="Path_2008" data-name="Path 2008" d="M8.475,6.422,6.027,2.181a2.809,2.809,0,0,0,.4-.495,1.164,1.164,0,0,0,.14-1.2C6.19-.165,5.008-.16,3.874.495a4.126,4.126,0,0,0-.434.292L3.306.634a.845.845,0,0,0-1.268,0L.215,2.7A.845.845,0,0,0,0,3.26V8.507a1.5,1.5,0,0,0,1.5,1.5H3.84a1.5,1.5,0,0,0,1.5-1.5V3.26a.843.843,0,0,0-.133-.453h0a4.074,4.074,0,0,0,.566-.395L8.186,6.589a1.167,1.167,0,0,1-.427,1.6L5.737,9.351a1.157,1.157,0,0,1-.283.115.167.167,0,0,0,.086.322A1.5,1.5,0,0,0,5.9,9.64L7.925,8.473A1.5,1.5,0,0,0,8.475,6.422ZM5.007,8.507A1.169,1.169,0,0,1,3.84,9.674H1.5A1.169,1.169,0,0,1,.337,8.507V3.26a.512.512,0,0,1,.128-.339L2.289.855a.511.511,0,0,1,.767,0L4.683,2.7a2.761,2.761,0,0,1-1.189.264.825.825,0,0,0,.013-.127A.835.835,0,0,0,2.672,2a.163.163,0,0,0-.054.011.165.165,0,0,0-.181.127.932.932,0,0,0,.082.677.9.9,0,0,0,.487.39.5.5,0,0,1-.834-.371.167.167,0,0,0-.334,0,.833.833,0,0,0,1.533.451,1.953,1.953,0,0,0,.2.011,3.217,3.217,0,0,0,1.339-.337.51.51,0,0,1,.1.3ZM3.173,2.836a.5.5,0,0,1-.007.073.606.606,0,0,1-.357-.258.535.535,0,0,1-.063-.308A.5.5,0,0,1,3.173,2.836Zm1.869-.32-.05.027L3.663,1.037A3.783,3.783,0,0,1,4.041.785C4.981.242,6,.181,6.275.651a.857.857,0,0,1-.135.861,2.388,2.388,0,0,1-.287.37l0,0A.845.845,0,0,0,5.389,1.5L4.736,1.28A.167.167,0,0,0,4.63,1.6l.653.22a.513.513,0,0,1,.28.229l.043.074a3.716,3.716,0,0,1-.563.4Zm0,0" transform="translate(0 0)" fill="#fff"/>
      <path id="Path_2009" data-name="Path 2009" d="M272.026,279.358a.167.167,0,0,0,.228.061l1.155-.667a.167.167,0,1,0-.167-.289l-1.156.667A.167.167,0,0,0,272.026,279.358Zm0,0" transform="translate(-266.33 -272.635)" fill="#fff"/>
      <path id="Path_2010" data-name="Path 2010" d="M282.155,321.095a.167.167,0,0,0,.228.061l1.444-.834a.167.167,0,0,0-.167-.289l-1.444.834A.167.167,0,0,0,282.155,321.095Zm0,0" transform="translate(-276.247 -313.339)" fill="#fff"/>
      <path id="Path_2011" data-name="Path 2011" d="M279.893,244.467a.167.167,0,0,0,.083-.022l.578-.334a.167.167,0,1,0-.167-.289l-.578.334a.167.167,0,0,0,.083.311Zm0,0" transform="translate(-273.891 -238.717)" fill="#fff"/>
    </g>
  </g>
</svg>
