<svg xmlns="http://www.w3.org/2000/svg" width="14.11" height="13.076" viewBox="0 0 14.11 13.076">
  <path id="Path_195" data-name="Path 195" d="M7.055,17.425C3.162,17.425,0,19.906,0,22.95a5.075,5.075,0,0,0,2.312,4.1l-.5,2.867a.493.493,0,0,0,.2.5A.471.471,0,0,0,2.3,30.5a.446.446,0,0,0,.235-.059l3.725-2c.269.025.53.034.79.034,3.893,0,7.055-2.481,7.055-5.525S10.949,17.425,7.055,17.425Zm0,10.032c-.269,0-.555-.017-.841-.042a.517.517,0,0,0-.294.059L2.977,29.055l.378-2.161a.5.5,0,0,0-.227-.513A4.156,4.156,0,0,1,1,22.95c0-2.489,2.716-4.516,6.046-4.516s6.046,2.027,6.046,4.516S10.385,27.457,7.055,27.457Z" transform="translate(0 -17.425)" fill="#9292b1"/>
</svg>
