<svg xmlns="http://www.w3.org/2000/svg" width="21.923" height="25" viewBox="0 0 21.923 25">
  <g id="USER" transform="translate(-37.3 -6.3)">
    <g id="Group_16" data-name="Group 16" transform="translate(37.3 6.3)">
      <g id="Group_12" data-name="Group 12" transform="translate(4.331 0)">
        <g id="Group_11" data-name="Group 11">
          <g id="Group_10" data-name="Group 10">
            <path id="Path_10" data-name="Path 10" d="M133.128,19.556a6.628,6.628,0,1,1,6.628-6.628A6.636,6.636,0,0,1,133.128,19.556Zm0-12.171a5.543,5.543,0,1,0,5.543,5.543A5.55,5.55,0,0,0,133.128,7.385Z" transform="translate(-126.5 -6.3)" fill="#9292b1"/>
          </g>
        </g>
      </g>
      <g id="Group_15" data-name="Group 15" transform="translate(0 14.682)">
        <g id="Group_14" data-name="Group 14">
          <g id="Group_13" data-name="Group 13">
            <path id="Path_11" data-name="Path 11" d="M37.831,313.918a.537.537,0,0,1-.531-.543,9.863,9.863,0,0,1,2.771-6.889,9.242,9.242,0,0,1,6.7-2.887h2.982a9.242,9.242,0,0,1,6.7,2.887,9.863,9.863,0,0,1,2.771,6.889.537.537,0,0,1-.531.543Zm8.94-9.233a8.574,8.574,0,0,0-8.373,7.908l-.02.235H58.146l-.02-.235a8.578,8.578,0,0,0-8.373-7.908Z" transform="translate(-37.3 -303.6)" fill="#9292b1"/>
          </g>
        </g>
      </g>
    </g>
  </g>
</svg>
