<svg xmlns="http://www.w3.org/2000/svg" xmlns:xlink="http://www.w3.org/1999/xlink" width="175" height="175" viewBox="0 0 175 175">
  <defs>
    <linearGradient id="linear-gradient" x1="-1.071" y1="1.249" x2="1.407" y2="-0.176" gradientUnits="objectBoundingBox">
      <stop offset="0.05" stop-color="#9668f7"/>
      <stop offset="1" stop-color="#78d8fb"/>
    </linearGradient>
    <filter id="Rectangle_361" x="0" y="0" width="175" height="175" filterUnits="userSpaceOnUse">
      <feOffset dy="3" input="SourceAlpha"/>
      <feGaussianBlur stdDeviation="22" result="blur"/>
      <feFlood flood-opacity="0.078"/>
      <feComposite operator="in" in2="blur"/>
      <feComposite in="SourceGraphic"/>
    </filter>
  </defs>
  <g id="Group_452" data-name="Group 452" transform="translate(-212 -519.497)">
    <g transform="matrix(1, 0, 0, 1, 212, 519.5)" filter="url(#Rectangle_361)">
      <rect id="Rectangle_361-2" data-name="Rectangle 361" width="43" height="43" rx="21.5" transform="translate(66 63)" opacity="0.1" fill="url(#linear-gradient)"/>
    </g>
    <g id="photo-camera" transform="translate(291 596.231)">
      <g id="Group_36" data-name="Group 36" transform="translate(0 0)">
        <path id="Path_61" data-name="Path 61" d="M14.953,36.724l-1.812-.009L11.4,34.125a.574.574,0,0,0-.474-.266H6.252a.572.572,0,0,0-.465.256l-1.793,2.6-1.679.009A2.324,2.324,0,0,0,0,39.039v7.486a2.341,2.341,0,0,0,2.315,2.334H14.953a2.341,2.341,0,0,0,2.315-2.334V39.039A2.324,2.324,0,0,0,14.953,36.724Zm1.176,9.8a1.2,1.2,0,0,1-1.176,1.2H2.315a1.2,1.2,0,0,1-1.176-1.2V39.039a1.182,1.182,0,0,1,1.176-1.176H4.3a.572.572,0,0,0,.465-.256l1.793-2.6h4.07l1.727,2.581a.586.586,0,0,0,.465.256l2.125.019a1.182,1.182,0,0,1,1.176,1.176v7.486h.009Z" transform="translate(0 -33.859)" fill="#9292b1"/>
        <path id="Path_62" data-name="Path 62" d="M143.1,160.225a4.267,4.267,0,1,0,4.267,4.267A4.27,4.27,0,0,0,143.1,160.225Zm0,7.329a3.062,3.062,0,1,1,3.062-3.062A3.068,3.068,0,0,1,143.1,167.554Z" transform="translate(-134.421 -156.28)" fill="#9292b1"/>
        <ellipse id="Ellipse_2" data-name="Ellipse 2" cx="0.231" cy="0.231" rx="0.231" ry="0.231" transform="translate(13.612 5.673)" fill="#9292b1"/>
        <path id="Path_63" data-name="Path 63" d="M397.783,186.575a.833.833,0,1,0,.833.833A.831.831,0,0,0,397.783,186.575Zm0,1.2a.371.371,0,0,1-.371-.371.371.371,0,0,1,.743,0A.371.371,0,0,1,397.783,187.78Z" transform="translate(-383.889 -181.496)" fill="#9292b1"/>
      </g>
    </g>
  </g>
</svg>
