<svg xmlns="http://www.w3.org/2000/svg" width="72.162" height="72.145" viewBox="0 0 72.162 72.145">
  <path id="store" d="M68.543,40.788v25.4A6.019,6.019,0,0,1,62.531,72.2H9.624a6.019,6.019,0,0,1-6.012-6.012v-25.4a1.2,1.2,0,0,1,2.4,0v25.4A3.611,3.611,0,0,0,9.624,69.8H22.7V49.506a6.019,6.019,0,0,1,6.012-6.012h14.73a6.019,6.019,0,0,1,6.012,6.012V64.987a1.2,1.2,0,0,1-2.4,0V49.506A3.611,3.611,0,0,0,43.442,45.9H28.712a3.611,3.611,0,0,0-3.607,3.607V69.8h9.77V50.858a1.2,1.2,0,1,1,2.4,0V69.8H62.531a3.611,3.611,0,0,0,3.607-3.607v-25.4a1.2,1.2,0,0,1,2.4,0ZM7.82,19.295a1.2,1.2,0,0,0,1.2,1.2c65.422,0,62.178.117,62.656-.25a1.2,1.2,0,0,0,.458-.786c.067-.483.5.705-7.9-18.681a1.2,1.2,0,0,0-1.1-.724H9.023a1.2,1.2,0,0,0-1.1.724L.1,18.817c-.138.319-.1-.187-.1,7.938a9.916,9.916,0,0,0,18.635,4.724,9.923,9.923,0,0,0,17.438,0,9.923,9.923,0,0,0,17.435,0A9.919,9.919,0,0,0,72.15,26.753a1.2,1.2,0,1,0-2.4,0,7.515,7.515,0,0,1-15.03,0,1.2,1.2,0,1,0-2.4,0,7.515,7.515,0,0,1-15.03,0,1.2,1.2,0,1,0-2.4,0,7.515,7.515,0,1,1-15.03-.06,1.2,1.2,0,1,0-2.4,0,7.515,7.515,0,1,1-15.03.06V19.544l7.4-17.083h52.53l6.774,15.631H9.023a1.2,1.2,0,0,0-1.2,1.2Z" transform="translate(0.001 -0.056)" fill="#fff"/>
</svg>
