<svg xmlns="http://www.w3.org/2000/svg" width="9.958" height="9.51" viewBox="0 0 9.958 9.51">
  <g id="star_2_" data-name="star (2)" transform="translate(0 -11.537)">
    <g id="Group_588" data-name="Group 588" transform="translate(1.75 13.095)">
      <g id="Group_587" data-name="Group 587">
        <path id="Path_2075" data-name="Path 2075" d="M98.178,93.709a.391.391,0,0,0-.341-.272l-3.045-.282-.6-1.4a.146.146,0,1,0-.268.115l.638,1.481a.146.146,0,0,0,.121.088l3.131.29a.105.105,0,0,1,.06.183l-2.362,2.075a.146.146,0,0,0-.046.142l.691,3.067a.105.105,0,0,1-.156.113l-2.7-1.605a.146.146,0,0,0-.149,0l-2.7,1.605a.105.105,0,0,1-.156-.113l.357-1.583a.146.146,0,1,0-.285-.064L90,99.131a.4.4,0,0,0,.59.428L93.219,98l2.629,1.561a.391.391,0,0,0,.436-.02.391.391,0,0,0,.154-.408l-.672-2.983,2.3-2.018A.391.391,0,0,0,98.178,93.709Z" transform="translate(-89.99 -91.665)" fill="#9292b1"/>
      </g>
    </g>
    <g id="Group_590" data-name="Group 590" transform="translate(0 11.537)">
      <g id="Group_589" data-name="Group 589">
        <path id="Path_2076" data-name="Path 2076" d="M5.681,12.561l-.338-.784a.4.4,0,0,0-.729,0L3.405,14.585l-3.045.282a.4.4,0,0,0-.225.693l2.3,2.018-.175.776a.146.146,0,1,0,.285.064l.194-.86a.146.146,0,0,0-.046-.142L.328,15.341a.105.105,0,0,1,.06-.183l3.131-.29a.146.146,0,0,0,.121-.088l1.244-2.888a.105.105,0,0,1,.193,0l.338.784a.146.146,0,1,0,.268-.115Z" transform="translate(0 -11.537)" fill="#9292b1"/>
      </g>
    </g>
  </g>
</svg>
