<svg xmlns="http://www.w3.org/2000/svg" xmlns:xlink="http://www.w3.org/1999/xlink" width="152" height="152" viewBox="0 0 152 152">
  <defs>
    <filter id="Rectangle_361" x="0" y="0" width="152" height="152" filterUnits="userSpaceOnUse">
      <feOffset dy="3" input="SourceAlpha"/>
      <feGaussianBlur stdDeviation="22" result="blur"/>
      <feFlood flood-opacity="0.078"/>
      <feComposite operator="in" in2="blur"/>
      <feComposite in="SourceGraphic"/>
    </filter>
  </defs>
  <g id="Group_535" data-name="Group 535" transform="translate(17 -239)">
    <g transform="matrix(1, 0, 0, 1, -17, 239)" filter="url(#Rectangle_361)">
      <rect id="Rectangle_361-2" data-name="Rectangle 361" width="20" height="20" rx="10" transform="translate(66 63)" fill="#9292b1"/>
    </g>
    <path id="store" d="M9.514,5.71V9.236a.836.836,0,0,1-.835.835H1.335A.836.836,0,0,1,.5,9.236V5.71a.167.167,0,0,1,.334,0V9.236a.5.5,0,0,0,.5.5H3.151V6.92a.836.836,0,0,1,.835-.835H6.03a.836.836,0,0,1,.835.835V9.069a.167.167,0,1,1-.334,0V6.92a.5.5,0,0,0-.5-.5H3.985a.5.5,0,0,0-.5.5V9.737H4.841V7.108a.167.167,0,1,1,.334,0V9.737H8.68a.5.5,0,0,0,.5-.5V5.71a.167.167,0,1,1,.334,0ZM1.085,2.727a.167.167,0,0,0,.167.167c9.082,0,8.631.016,8.7-.035a.166.166,0,0,0,.064-.109A18.17,18.17,0,0,0,8.916.157a.167.167,0,0,0-.153-.1H1.252a.167.167,0,0,0-.153.1L.014,2.66A5.668,5.668,0,0,0,0,3.762a1.376,1.376,0,0,0,2.587.656,1.377,1.377,0,0,0,2.421,0,1.377,1.377,0,0,0,2.42,0,1.377,1.377,0,0,0,2.587-.657.167.167,0,1,0-.334,0,1.043,1.043,0,0,1-2.086,0,.167.167,0,0,0-.334,0,1.043,1.043,0,1,1-2.086,0,.167.167,0,1,0-.334,0,1.043,1.043,0,1,1-2.086-.008.167.167,0,1,0-.334,0,1.043,1.043,0,1,1-2.086.008v-1L1.361.39H8.653l.94,2.17H1.252a.167.167,0,0,0-.167.167Z" transform="translate(54.001 307.127)" fill="#fff"/>
  </g>
</svg>
