<svg xmlns="http://www.w3.org/2000/svg" xmlns:xlink="http://www.w3.org/1999/xlink" width="152" height="152" viewBox="0 0 152 152">
  <defs>
    <filter id="Rectangle_361" x="0" y="0" width="152" height="152" filterUnits="userSpaceOnUse">
      <feOffset dy="3" input="SourceAlpha"/>
      <feGaussianBlur stdDeviation="22" result="blur"/>
      <feFlood flood-opacity="0.078"/>
      <feComposite operator="in" in2="blur"/>
      <feComposite in="SourceGraphic"/>
    </filter>
  </defs>
  <g id="Group_532" data-name="Group 532" transform="translate(17 -239)">
    <g transform="matrix(1, 0, 0, 1, -17, 239)" filter="url(#Rectangle_361)">
      <rect id="Rectangle_361-2" data-name="Rectangle 361" width="20" height="20" rx="10" transform="translate(66 63)" fill="#9292b1"/>
    </g>
    <g id="Group_533" data-name="Group 533" transform="translate(-731.302 563.105)">
      <path id="Path_2025" data-name="Path 2025" d="M788.549-245.882a2.883,2.883,0,0,1-.273-.213c-.494-.488-.983-.98-1.474-1.47a.18.18,0,0,1-.071-.189.143.143,0,0,1,.206-.081.419.419,0,0,1,.081.069l1.514,1.514a.5.5,0,0,0,.057.054c.057.041.108.019.117-.052a.926.926,0,0,0,0-.107q0-.811,0-1.623c0-.17.044-.214.214-.214h4.262c.156,0,.159,0,.159-.158q0-.87,0-1.74c0-.142-.006-.147-.151-.147-.241,0-.482,0-.723,0a.23.23,0,0,0-.142.06c-.282.275-.559.556-.838.834a.356.356,0,0,1-.384.1.342.342,0,0,1-.244-.28,1.325,1.325,0,0,1-.006-.224c0-.159,0-.318,0-.492-.153,0-.3,0-.443,0-.1,0-.157-.048-.165-.13s.054-.16.163-.162c.143,0,.286,0,.437,0v-.7h-1.838v.7h.251c.15,0,.3,0,.45,0a.144.144,0,0,1,.15.147.143.143,0,0,1-.152.144q-.42,0-.841,0c-.111,0-.158-.06-.158-.189q0-.723,0-1.447c0-.081,0-.163,0-.244a.609.609,0,0,0-.04-.13.43.43,0,0,0-.122.059c-.336.332-.67.667-1,1l-1.859,1.859c-.112.112-.112.115,0,.224l.76.76c.018.018.038.036.055.056a.147.147,0,0,1,0,.21.143.143,0,0,1-.21-.007c-.055-.05-.107-.105-.16-.158l-.684-.685a.368.368,0,0,1,0-.574l1.645-1.645c.024-.024.047-.05.086-.091-.181,0-.343-.009-.5,0a.4.4,0,0,1-.452-.444c.012-.589,0-1.179,0-1.769a.371.371,0,0,1,.419-.421h4.215V-254c0-.512,0-1.023,0-1.535a.359.359,0,0,1,.528-.32.5.5,0,0,1,.115.089q1.463,1.461,2.924,2.923a.365.365,0,0,1,0,.56q-.372.375-.747.746a.152.152,0,0,1-.225.018.153.153,0,0,1,.018-.225l.048-.049.67-.671c.094-.095.095-.106,0-.2l-2.868-2.868a.416.416,0,0,0-.065-.059c-.056-.036-.093-.012-.108.047a.37.37,0,0,0,0,.088q0,.821,0,1.642c0,.184-.04.225-.222.225h-4.252c-.157,0-.16,0-.16.158q0,.875,0,1.75c0,.13.008.138.14.138.244,0,.489,0,.733,0a.23.23,0,0,0,.142-.059c.284-.278.563-.561.846-.841a.348.348,0,0,1,.4-.084.348.348,0,0,1,.223.347q0,.1,0,.205v.434h1.938c.164,0,.207.044.207.209,0,.554,0,1.108,0,1.662a.532.532,0,0,0,.041.14.484.484,0,0,0,.129-.066q.794-.788,1.584-1.581c.023-.023.045-.047.07-.068a.147.147,0,0,1,.2,0,.142.142,0,0,1,0,.209c-.1.1-.2.2-.3.305-.059.059-.12.117-.2.2.191,0,.352,0,.513,0a.818.818,0,0,1,.165.012.345.345,0,0,1,.283.34q0,.963,0,1.926a.358.358,0,0,1-.387.354c-.329,0-.658,0-.987,0H789v.111c0,.479-.007.958,0,1.437a.436.436,0,0,1-.28.471Z" transform="translate(0)" fill="#fff"/>
    </g>
  </g>
</svg>
