<svg xmlns="http://www.w3.org/2000/svg" xmlns:xlink="http://www.w3.org/1999/xlink" width="375.975" height="150.792" viewBox="0 0 375.975 150.792">
  <defs>
    <linearGradient id="linear-gradient" x1="-0.012" y1="1.3" x2="1.447" y2="-0.967" gradientUnits="objectBoundingBox">
      <stop offset="0.189" stop-color="#feb97b"/>
      <stop offset="1" stop-color="#fda189"/>
    </linearGradient>
    <linearGradient id="linear-gradient-2" x1="-0.201" y1="1.004" x2="1.015" y2="0.182" xlink:href="#linear-gradient"/>
  </defs>
  <g id="Group_524" data-name="Group 524" transform="translate(-356.106 -1722.36)">
    <path id="Path_2003" data-name="Path 2003" d="M667.26,1873.066l-40.751-4.23a801.985,801.985,0,0,0-164.582-.1l-42.258,4.332a16.04,16.04,0,0,1-17.269-12.37l-17.456-76.086a16.04,16.04,0,0,1,13.135-19.43l8.288-1.308a884.87,884.87,0,0,1,275.713,0l8.027,1.266a16.041,16.041,0,0,1,13.078,19.669l-18.692,76.131A16.04,16.04,0,0,1,667.26,1873.066Z" opacity="0.25" fill="url(#linear-gradient)"/>
    <path id="Path_2004" data-name="Path 2004" d="M689.2,1863.74l-48.012-4.983a944.893,944.893,0,0,0-193.9-.123l-49.787,5.1a18.9,18.9,0,0,1-20.346-14.574l-20.566-89.642a18.9,18.9,0,0,1,15.475-22.892l9.765-1.54a1042.5,1042.5,0,0,1,324.836,0l9.456,1.491a18.9,18.9,0,0,1,15.408,23.173l-22.022,89.7A18.9,18.9,0,0,1,689.2,1863.74Z" fill="url(#linear-gradient-2)"/>
  </g>
</svg>
